<svg width="14" height="15" viewBox="0 0 14 15" fill="none" xmlns="http://www.w3.org/2000/svg">
<path d="M8 4.01855H9.3584C9.71173 4.01813 10.0563 4.12849 10.3438 4.33398C10.6314 4.53975 10.8472 4.83116 10.9609 5.16602C11.4976 6.75006 12.2035 7.79747 12.9473 8.11621L13.3447 8.28711L12.8105 10.2891C12.6393 10.9355 12.2543 11.5057 11.7188 11.9062C11.1834 12.3065 10.5286 12.5144 9.86035 12.4961C9.15051 12.4787 8.44103 12.5526 7.75 12.7158V14.8262H0V13.0566C0.00253109 12.9925 0.0681467 11.4634 0.550781 9.62012C0.836469 8.52909 1.21058 7.55349 1.66211 6.72168C2.19786 5.73467 2.84665 4.94539 3.5918 4.37207C3.69974 3.71251 3.93228 2.83065 4.43262 2.03125C5.12658 0.922347 6.13509 0.265983 7.42969 0.0810547L8 0V4.01855Z" fill="black"/>
</svg>
