<svg width="1297" height="739" viewBox="0 0 1297 739" fill="none" xmlns="http://www.w3.org/2000/svg">
<path d="M640.8 16C644.636 16 648.156 17.4361 650.718 20.0895C653.28 22.7457 654.8 26.5379 654.8 31.1127C654.8 35.665 653.299 40.2341 650.852 43.6926C648.416 47.1341 644.888 49.6585 640.8 49.6585C636.712 49.6585 633.184 47.1341 630.748 43.6926C628.301 40.2341 626.8 35.665 626.8 31.1155C626.8 26.5379 628.32 22.7457 630.885 20.0895C633.444 17.4361 636.964 16 640.8 16ZM610 41.2439C613.836 41.2439 617.356 42.68 619.918 45.3334C622.48 47.9896 624 51.7818 624 56.3566C624 60.9089 622.499 65.478 620.052 68.9365C617.616 72.378 614.088 74.9024 610 74.9024C605.912 74.9024 602.384 72.378 599.948 68.9365C597.501 65.478 596 60.9061 596 56.3594C596 51.7818 597.52 47.9896 600.085 45.3334C602.644 42.68 606.164 41.2439 610 41.2439ZM659 60.878C639.053 60.878 622.527 77.8896 617.325 99.2207C615.018 108.684 618.537 118.835 627.217 123.646C634.114 127.471 644.434 131 658.997 131C673.563 131 683.884 127.471 690.783 123.646C699.46 118.835 702.98 108.684 700.672 99.2235C695.473 77.8896 678.944 60.878 659 60.878ZM708 41.2439C704.164 41.2439 700.644 42.68 698.085 45.3334C695.52 47.9896 694 51.7818 694 56.3566C694 60.9089 695.501 65.478 697.948 68.9365C700.384 72.378 703.912 74.9024 708 74.9024C712.088 74.9024 715.616 72.378 718.052 68.9365C720.499 65.478 722 60.9089 722 56.3594C722 51.7818 720.48 47.9896 717.918 45.3334C715.356 42.68 711.836 41.2439 708 41.2439ZM677.2 16C673.364 16 669.844 17.4361 667.285 20.0895C664.72 22.7457 663.2 26.5379 663.2 31.1127C663.2 35.665 664.701 40.2341 667.148 43.6926C669.584 47.1341 673.112 49.6585 677.2 49.6585C681.288 49.6585 684.816 47.1341 687.252 43.6926C689.699 40.2341 691.2 35.665 691.2 31.1155C691.2 26.5379 689.68 22.7457 687.118 20.0895C684.556 17.4361 681.036 16 677.2 16Z" fill="#FE9103"/>
<path d="M365.8 4C369.636 4 373.156 5.4361 375.718 8.08951C378.28 10.7457 379.8 14.5379 379.8 19.1127C379.8 23.665 378.299 28.2341 375.852 31.6926C373.416 35.1341 369.888 37.6585 365.8 37.6585C361.712 37.6585 358.184 35.1341 355.748 31.6926C353.301 28.2341 351.8 23.665 351.8 19.1155C351.8 14.5379 353.32 10.7457 355.885 8.08951C358.444 5.4361 361.964 4 365.8 4ZM335 29.2439C338.836 29.2439 342.356 30.68 344.918 33.3334C347.48 35.9896 349 39.7818 349 44.3566C349 48.9089 347.499 53.478 345.052 56.9365C342.616 60.378 339.088 62.9024 335 62.9024C330.912 62.9024 327.384 60.378 324.948 56.9365C322.501 53.478 321 48.9061 321 44.3594C321 39.7818 322.52 35.9896 325.085 33.3334C327.644 30.68 331.164 29.2439 335 29.2439ZM384 48.878C364.053 48.878 347.527 65.8896 342.325 87.2207C340.018 96.6844 343.537 106.835 352.217 111.646C359.114 115.471 369.434 119 383.997 119C398.563 119 408.884 115.471 415.783 111.646C424.46 106.835 427.98 96.6844 425.672 87.2235C420.473 65.8896 403.944 48.878 384 48.878ZM433 29.2439C429.164 29.2439 425.644 30.68 423.085 33.3334C420.52 35.9896 419 39.7818 419 44.3566C419 48.9089 420.501 53.478 422.948 56.9365C425.384 60.378 428.912 62.9024 433 62.9024C437.088 62.9024 440.616 60.378 443.052 56.9365C445.499 53.478 447 48.9089 447 44.3594C447 39.7818 445.48 35.9896 442.918 33.3334C440.356 30.68 436.836 29.2439 433 29.2439ZM402.2 4C398.364 4 394.844 5.4361 392.285 8.08951C389.72 10.7457 388.2 14.5379 388.2 19.1127C388.2 23.665 389.701 28.2341 392.148 31.6926C394.584 35.1341 398.112 37.6585 402.2 37.6585C406.288 37.6585 409.816 35.1341 412.252 31.6926C414.699 28.2341 416.2 23.665 416.2 19.1155C416.2 14.5379 414.68 10.7457 412.118 8.08951C409.556 5.4361 406.036 4 402.2 4Z" fill="#FE9103"/>
<path d="M90.8 16C94.636 16 98.1556 17.4361 100.718 20.0895C103.28 22.7457 104.8 26.5379 104.8 31.1127C104.8 35.665 103.299 40.2341 100.852 43.6926C98.416 47.1341 94.888 49.6585 90.8 49.6585C86.712 49.6585 83.184 47.1341 80.748 43.6926C78.3008 40.2341 76.8 35.665 76.8 31.1155C76.8 26.5379 78.3204 22.7457 80.8852 20.0895C83.4444 17.4361 86.964 16 90.8 16ZM60 41.2439C63.836 41.2439 67.3556 42.68 69.9176 45.3334C72.4796 47.9896 74 51.7818 74 56.3566C74 60.9089 72.4992 65.478 70.052 68.9365C67.616 72.378 64.088 74.9024 60 74.9024C55.912 74.9024 52.384 72.378 49.948 68.9365C47.5008 65.478 46 60.9061 46 56.3594C46 51.7818 47.5204 47.9896 50.0852 45.3334C52.6444 42.68 56.164 41.2439 60 41.2439ZM109 60.878C89.0528 60.878 72.5272 77.8896 67.3248 99.2207C65.0176 108.684 68.5372 118.835 77.2172 123.646C84.1136 127.471 94.4344 131 108.997 131C123.563 131 133.884 127.471 140.783 123.646C149.46 118.835 152.98 108.684 150.672 99.2235C145.473 77.8896 128.944 60.878 109 60.878ZM158 41.2439C154.164 41.2439 150.644 42.68 148.085 45.3334C145.52 47.9896 144 51.7818 144 56.3566C144 60.9089 145.501 65.478 147.948 68.9365C150.384 72.378 153.912 74.9024 158 74.9024C162.088 74.9024 165.616 72.378 168.052 68.9365C170.499 65.478 172 60.9089 172 56.3594C172 51.7818 170.48 47.9896 167.918 45.3334C165.356 42.68 161.836 41.2439 158 41.2439ZM127.2 16C123.364 16 119.844 17.4361 117.285 20.0895C114.72 22.7457 113.2 26.5379 113.2 31.1127C113.2 35.665 114.701 40.2341 117.148 43.6926C119.584 47.1341 123.112 49.6585 127.2 49.6585C131.288 49.6585 134.816 47.1341 137.252 43.6926C139.699 40.2341 141.2 35.665 141.2 31.1155C141.2 26.5379 139.68 22.7457 137.118 20.0895C134.556 17.4361 131.036 16 127.2 16Z" fill="#FE9103"/>
<path d="M873.8 584C877.636 584 881.156 585.436 883.718 588.09C886.28 590.746 887.8 594.538 887.8 599.113C887.8 603.665 886.299 608.234 883.852 611.693C881.416 615.134 877.888 617.659 873.8 617.659C869.712 617.659 866.184 615.134 863.748 611.693C861.301 608.234 859.8 603.665 859.8 599.115C859.8 594.538 861.32 590.746 863.885 588.09C866.444 585.436 869.964 584 873.8 584ZM843 609.244C846.836 609.244 850.356 610.68 852.918 613.333C855.48 615.99 857 619.782 857 624.357C857 628.909 855.499 633.478 853.052 636.936C850.616 640.378 847.088 642.902 843 642.902C838.912 642.902 835.384 640.378 832.948 636.936C830.501 633.478 829 628.906 829 624.359C829 619.782 830.52 615.99 833.085 613.333C835.644 610.68 839.164 609.244 843 609.244ZM892 628.878C872.053 628.878 855.527 645.89 850.325 667.221C848.018 676.684 851.537 686.835 860.217 691.646C867.114 695.471 877.434 699 891.997 699C906.563 699 916.884 695.471 923.783 691.646C932.46 686.835 935.98 676.684 933.672 667.224C928.473 645.89 911.944 628.878 892 628.878ZM941 609.244C937.164 609.244 933.644 610.68 931.085 613.333C928.52 615.99 927 619.782 927 624.357C927 628.909 928.501 633.478 930.948 636.936C933.384 640.378 936.912 642.902 941 642.902C945.088 642.902 948.616 640.378 951.052 636.936C953.499 633.478 955 628.909 955 624.359C955 619.782 953.48 615.99 950.918 613.333C948.356 610.68 944.836 609.244 941 609.244ZM910.2 584C906.364 584 902.844 585.436 900.285 588.09C897.72 590.746 896.2 594.538 896.2 599.113C896.2 603.665 897.701 608.234 900.148 611.693C902.584 615.134 906.112 617.659 910.2 617.659C914.288 617.659 917.816 615.134 920.252 611.693C922.699 608.234 924.2 603.665 924.2 599.115C924.2 594.538 922.68 590.746 920.118 588.09C917.556 585.436 914.036 584 910.2 584Z" fill="#FE9103"/>
<path d="M1013.8 604C1017.64 604 1021.16 605.436 1023.72 608.09C1026.28 610.746 1027.8 614.538 1027.8 619.113C1027.8 623.665 1026.3 628.234 1023.85 631.693C1021.42 635.134 1017.89 637.659 1013.8 637.659C1009.71 637.659 1006.18 635.134 1003.75 631.693C1001.3 628.234 999.8 623.665 999.8 619.115C999.8 614.538 1001.32 610.746 1003.89 608.09C1006.44 605.436 1009.96 604 1013.8 604ZM983 629.244C986.836 629.244 990.356 630.68 992.918 633.333C995.48 635.99 997 639.782 997 644.357C997 648.909 995.499 653.478 993.052 656.936C990.616 660.378 987.088 662.902 983 662.902C978.912 662.902 975.384 660.378 972.948 656.936C970.501 653.478 969 648.906 969 644.359C969 639.782 970.52 635.99 973.085 633.333C975.644 630.68 979.164 629.244 983 629.244ZM1032 648.878C1012.05 648.878 995.527 665.89 990.325 687.221C988.018 696.684 991.537 706.835 1000.22 711.646C1007.11 715.471 1017.43 719 1032 719C1046.56 719 1056.88 715.471 1063.78 711.646C1072.46 706.835 1075.98 696.684 1073.67 687.224C1068.47 665.89 1051.94 648.878 1032 648.878ZM1081 629.244C1077.16 629.244 1073.64 630.68 1071.09 633.333C1068.52 635.99 1067 639.782 1067 644.357C1067 648.909 1068.5 653.478 1070.95 656.936C1073.38 660.378 1076.91 662.902 1081 662.902C1085.09 662.902 1088.62 660.378 1091.05 656.936C1093.5 653.478 1095 648.909 1095 644.359C1095 639.782 1093.48 635.99 1090.92 633.333C1088.36 630.68 1084.84 629.244 1081 629.244ZM1050.2 604C1046.36 604 1042.84 605.436 1040.29 608.09C1037.72 610.746 1036.2 614.538 1036.2 619.113C1036.2 623.665 1037.7 628.234 1040.15 631.693C1042.58 635.134 1046.11 637.659 1050.2 637.659C1054.29 637.659 1057.82 635.134 1060.25 631.693C1062.7 628.234 1064.2 623.665 1064.2 619.115C1064.2 614.538 1062.68 610.746 1060.12 608.09C1057.56 605.436 1054.04 604 1050.2 604Z" fill="#FE9103"/>
<path d="M44.8 142C48.636 142 52.1556 143.436 54.7176 146.09C57.2796 148.746 58.8 152.538 58.8 157.113C58.8 161.665 57.2992 166.234 54.852 169.693C52.416 173.134 48.888 175.659 44.8 175.659C40.712 175.659 37.184 173.134 34.748 169.693C32.3008 166.234 30.8 161.665 30.8 157.115C30.8 152.538 32.3204 148.746 34.8852 146.09C37.4444 143.436 40.964 142 44.8 142ZM14 167.244C17.836 167.244 21.3556 168.68 23.9176 171.333C26.4796 173.99 28 177.782 28 182.357C28 186.909 26.4992 191.478 24.052 194.936C21.616 198.378 18.088 200.902 14 200.902C9.912 200.902 6.384 198.378 3.948 194.936C1.5008 191.478 0 186.906 0 182.359C0 177.782 1.5204 173.99 4.0852 171.333C6.6444 168.68 10.164 167.244 14 167.244ZM63 186.878C43.0528 186.878 26.5272 203.89 21.3248 225.221C19.0176 234.684 22.5372 244.835 31.2172 249.646C38.1136 253.471 48.4344 257 62.9972 257C77.5628 257 87.8836 253.471 94.7828 249.646C103.46 244.835 106.98 234.684 104.672 225.224C99.4728 203.89 82.9444 186.878 63 186.878ZM112 167.244C108.164 167.244 104.644 168.68 102.085 171.333C99.5204 173.99 98 177.782 98 182.357C98 186.909 99.5008 191.478 101.948 194.936C104.384 198.378 107.912 200.902 112 200.902C116.088 200.902 119.616 198.378 122.052 194.936C124.499 191.478 126 186.909 126 182.359C126 177.782 124.48 173.99 121.918 171.333C119.356 168.68 115.836 167.244 112 167.244ZM81.2 142C77.364 142 73.8444 143.436 71.2852 146.09C68.7204 148.746 67.2 152.538 67.2 157.113C67.2 161.665 68.7008 166.234 71.148 169.693C73.584 173.134 77.112 175.659 81.2 175.659C85.288 175.659 88.816 173.134 91.252 169.693C93.6992 166.234 95.2 161.665 95.2 157.115C95.2 152.538 93.6796 148.746 91.1176 146.09C88.5556 143.436 85.036 142 81.2 142Z" fill="#FE9103"/>
<path d="M80.8 273C84.636 273 88.1556 274.436 90.7176 277.09C93.2796 279.746 94.8 283.538 94.8 288.113C94.8 292.665 93.2992 297.234 90.852 300.693C88.416 304.134 84.888 306.659 80.8 306.659C76.712 306.659 73.184 304.134 70.748 300.693C68.3008 297.234 66.8 292.665 66.8 288.115C66.8 283.538 68.3204 279.746 70.8852 277.09C73.4444 274.436 76.964 273 80.8 273ZM50 298.244C53.836 298.244 57.3556 299.68 59.9176 302.333C62.4796 304.99 64 308.782 64 313.357C64 317.909 62.4992 322.478 60.052 325.936C57.616 329.378 54.088 331.902 50 331.902C45.912 331.902 42.384 329.378 39.948 325.936C37.5008 322.478 36 317.906 36 313.359C36 308.782 37.5204 304.99 40.0852 302.333C42.6444 299.68 46.164 298.244 50 298.244ZM99 317.878C79.0528 317.878 62.5272 334.89 57.3248 356.221C55.0176 365.684 58.5372 375.835 67.2172 380.646C74.1136 384.471 84.4344 388 98.9972 388C113.563 388 123.884 384.471 130.783 380.646C139.46 375.835 142.98 365.684 140.672 356.224C135.473 334.89 118.944 317.878 99 317.878ZM148 298.244C144.164 298.244 140.644 299.68 138.085 302.333C135.52 304.99 134 308.782 134 313.357C134 317.909 135.501 322.478 137.948 325.936C140.384 329.378 143.912 331.902 148 331.902C152.088 331.902 155.616 329.378 158.052 325.936C160.499 322.478 162 317.909 162 313.359C162 308.782 160.48 304.99 157.918 302.333C155.356 299.68 151.836 298.244 148 298.244ZM117.2 273C113.364 273 109.844 274.436 107.285 277.09C104.72 279.746 103.2 283.538 103.2 288.113C103.2 292.665 104.701 297.234 107.148 300.693C109.584 304.134 113.112 306.659 117.2 306.659C121.288 306.659 124.816 304.134 127.252 300.693C129.699 297.234 131.2 292.665 131.2 288.115C131.2 283.538 129.68 279.746 127.118 277.09C124.556 274.436 121.036 273 117.2 273Z" fill="#FE9103"/>
<path d="M116.8 404C120.636 404 124.156 405.436 126.718 408.09C129.28 410.746 130.8 414.538 130.8 419.113C130.8 423.665 129.299 428.234 126.852 431.693C124.416 435.134 120.888 437.659 116.8 437.659C112.712 437.659 109.184 435.134 106.748 431.693C104.301 428.234 102.8 423.665 102.8 419.115C102.8 414.538 104.32 410.746 106.885 408.09C109.444 405.436 112.964 404 116.8 404ZM86 429.244C89.836 429.244 93.3556 430.68 95.9176 433.333C98.4796 435.99 100 439.782 100 444.357C100 448.909 98.4992 453.478 96.052 456.936C93.616 460.378 90.088 462.902 86 462.902C81.912 462.902 78.384 460.378 75.948 456.936C73.5008 453.478 72 448.906 72 444.359C72 439.782 73.5204 435.99 76.0852 433.333C78.6444 430.68 82.164 429.244 86 429.244ZM135 448.878C115.053 448.878 98.5272 465.89 93.3248 487.221C91.0176 496.684 94.5372 506.835 103.217 511.646C110.114 515.471 120.434 519 134.997 519C149.563 519 159.884 515.471 166.783 511.646C175.46 506.835 178.98 496.684 176.672 487.224C171.473 465.89 154.944 448.878 135 448.878ZM184 429.244C180.164 429.244 176.644 430.68 174.085 433.333C171.52 435.99 170 439.782 170 444.357C170 448.909 171.501 453.478 173.948 456.936C176.384 460.378 179.912 462.902 184 462.902C188.088 462.902 191.616 460.378 194.052 456.936C196.499 453.478 198 448.909 198 444.359C198 439.782 196.48 435.99 193.918 433.333C191.356 430.68 187.836 429.244 184 429.244ZM153.2 404C149.364 404 145.844 405.436 143.285 408.09C140.72 410.746 139.2 414.538 139.2 419.113C139.2 423.665 140.701 428.234 143.148 431.693C145.584 435.134 149.112 437.659 153.2 437.659C157.288 437.659 160.816 435.134 163.252 431.693C165.699 428.234 167.2 423.665 167.2 419.115C167.2 414.538 165.68 410.746 163.118 408.09C160.556 405.436 157.036 404 153.2 404Z" fill="#FE9103"/>
<path d="M53.8 535C57.636 535 61.1556 536.436 63.7176 539.09C66.2796 541.746 67.8 545.538 67.8 550.113C67.8 554.665 66.2992 559.234 63.852 562.693C61.416 566.134 57.888 568.659 53.8 568.659C49.712 568.659 46.184 566.134 43.748 562.693C41.3008 559.234 39.8 554.665 39.8 550.115C39.8 545.538 41.3204 541.746 43.8852 539.09C46.4444 536.436 49.964 535 53.8 535ZM23 560.244C26.836 560.244 30.3556 561.68 32.9176 564.333C35.4796 566.99 37 570.782 37 575.357C37 579.909 35.4992 584.478 33.052 587.936C30.616 591.378 27.088 593.902 23 593.902C18.912 593.902 15.384 591.378 12.948 587.936C10.5008 584.478 9 579.906 9 575.359C9 570.782 10.5204 566.99 13.0852 564.333C15.6444 561.68 19.164 560.244 23 560.244ZM72 579.878C52.0528 579.878 35.5272 596.89 30.3248 618.221C28.0176 627.684 31.5372 637.835 40.2172 642.646C47.1136 646.471 57.4344 650 71.9972 650C86.5628 650 96.8836 646.471 103.783 642.646C112.46 637.835 115.98 627.684 113.672 618.224C108.473 596.89 91.9444 579.878 72 579.878ZM121 560.244C117.164 560.244 113.644 561.68 111.085 564.333C108.52 566.99 107 570.782 107 575.357C107 579.909 108.501 584.478 110.948 587.936C113.384 591.378 116.912 593.902 121 593.902C125.088 593.902 128.616 591.378 131.052 587.936C133.499 584.478 135 579.909 135 575.359C135 570.782 133.48 566.99 130.918 564.333C128.356 561.68 124.836 560.244 121 560.244ZM90.2 535C86.364 535 82.8444 536.436 80.2852 539.09C77.7204 541.746 76.2 545.538 76.2 550.113C76.2 554.665 77.7008 559.234 80.148 562.693C82.584 566.134 86.112 568.659 90.2 568.659C94.288 568.659 97.816 566.134 100.252 562.693C102.699 559.234 104.2 554.665 104.2 550.115C104.2 545.538 102.68 541.746 100.118 539.09C97.5556 536.436 94.036 535 90.2 535Z" fill="#FE9103"/>
<path d="M179.8 624C183.636 624 187.156 625.436 189.718 628.09C192.28 630.746 193.8 634.538 193.8 639.113C193.8 643.665 192.299 648.234 189.852 651.693C187.416 655.134 183.888 657.659 179.8 657.659C175.712 657.659 172.184 655.134 169.748 651.693C167.301 648.234 165.8 643.665 165.8 639.115C165.8 634.538 167.32 630.746 169.885 628.09C172.444 625.436 175.964 624 179.8 624ZM149 649.244C152.836 649.244 156.356 650.68 158.918 653.333C161.48 655.99 163 659.782 163 664.357C163 668.909 161.499 673.478 159.052 676.936C156.616 680.378 153.088 682.902 149 682.902C144.912 682.902 141.384 680.378 138.948 676.936C136.501 673.478 135 668.906 135 664.359C135 659.782 136.52 655.99 139.085 653.333C141.644 650.68 145.164 649.244 149 649.244ZM198 668.878C178.053 668.878 161.527 685.89 156.325 707.221C154.018 716.684 157.537 726.835 166.217 731.646C173.114 735.471 183.434 739 197.997 739C212.563 739 222.884 735.471 229.783 731.646C238.46 726.835 241.98 716.684 239.672 707.224C234.473 685.89 217.944 668.878 198 668.878ZM247 649.244C243.164 649.244 239.644 650.68 237.085 653.333C234.52 655.99 233 659.782 233 664.357C233 668.909 234.501 673.478 236.948 676.936C239.384 680.378 242.912 682.902 247 682.902C251.088 682.902 254.616 680.378 257.052 676.936C259.499 673.478 261 668.909 261 664.359C261 659.782 259.48 655.99 256.918 653.333C254.356 650.68 250.836 649.244 247 649.244ZM216.2 624C212.364 624 208.844 625.436 206.285 628.09C203.72 630.746 202.2 634.538 202.2 639.113C202.2 643.665 203.701 648.234 206.148 651.693C208.584 655.134 212.112 657.659 216.2 657.659C220.288 657.659 223.816 655.134 226.252 651.693C228.699 648.234 230.2 643.665 230.2 639.115C230.2 634.538 228.68 630.746 226.118 628.09C223.556 625.436 220.036 624 216.2 624Z" fill="#FE9103"/>
<path d="M321.8 593C325.636 593 329.156 594.436 331.718 597.09C334.28 599.746 335.8 603.538 335.8 608.113C335.8 612.665 334.299 617.234 331.852 620.693C329.416 624.134 325.888 626.659 321.8 626.659C317.712 626.659 314.184 624.134 311.748 620.693C309.301 617.234 307.8 612.665 307.8 608.115C307.8 603.538 309.32 599.746 311.885 597.09C314.444 594.436 317.964 593 321.8 593ZM291 618.244C294.836 618.244 298.356 619.68 300.918 622.333C303.48 624.99 305 628.782 305 633.357C305 637.909 303.499 642.478 301.052 645.936C298.616 649.378 295.088 651.902 291 651.902C286.912 651.902 283.384 649.378 280.948 645.936C278.501 642.478 277 637.906 277 633.359C277 628.782 278.52 624.99 281.085 622.333C283.644 619.68 287.164 618.244 291 618.244ZM340 637.878C320.053 637.878 303.527 654.89 298.325 676.221C296.018 685.684 299.537 695.835 308.217 700.646C315.114 704.471 325.434 708 339.997 708C354.563 708 364.884 704.471 371.783 700.646C380.46 695.835 383.98 685.684 381.672 676.224C376.473 654.89 359.944 637.878 340 637.878ZM389 618.244C385.164 618.244 381.644 619.68 379.085 622.333C376.52 624.99 375 628.782 375 633.357C375 637.909 376.501 642.478 378.948 645.936C381.384 649.378 384.912 651.902 389 651.902C393.088 651.902 396.616 649.378 399.052 645.936C401.499 642.478 403 637.909 403 633.359C403 628.782 401.48 624.99 398.918 622.333C396.356 619.68 392.836 618.244 389 618.244ZM358.2 593C354.364 593 350.844 594.436 348.285 597.09C345.72 599.746 344.2 603.538 344.2 608.113C344.2 612.665 345.701 617.234 348.148 620.693C350.584 624.134 354.112 626.659 358.2 626.659C362.288 626.659 365.816 624.134 368.252 620.693C370.699 617.234 372.2 612.665 372.2 608.115C372.2 603.538 370.68 599.746 368.118 597.09C365.556 594.436 362.036 593 358.2 593Z" fill="#FE9103"/>
<path d="M463.8 562C467.636 562 471.156 563.436 473.718 566.09C476.28 568.746 477.8 572.538 477.8 577.113C477.8 581.665 476.299 586.234 473.852 589.693C471.416 593.134 467.888 595.659 463.8 595.659C459.712 595.659 456.184 593.134 453.748 589.693C451.301 586.234 449.8 581.665 449.8 577.115C449.8 572.538 451.32 568.746 453.885 566.09C456.444 563.436 459.964 562 463.8 562ZM433 587.244C436.836 587.244 440.356 588.68 442.918 591.333C445.48 593.99 447 597.782 447 602.357C447 606.909 445.499 611.478 443.052 614.936C440.616 618.378 437.088 620.902 433 620.902C428.912 620.902 425.384 618.378 422.948 614.936C420.501 611.478 419 606.906 419 602.359C419 597.782 420.52 593.99 423.085 591.333C425.644 588.68 429.164 587.244 433 587.244ZM482 606.878C462.053 606.878 445.527 623.89 440.325 645.221C438.018 654.684 441.537 664.835 450.217 669.646C457.114 673.471 467.434 677 481.997 677C496.563 677 506.884 673.471 513.783 669.646C522.46 664.835 525.98 654.684 523.672 645.224C518.473 623.89 501.944 606.878 482 606.878ZM531 587.244C527.164 587.244 523.644 588.68 521.085 591.333C518.52 593.99 517 597.782 517 602.357C517 606.909 518.501 611.478 520.948 614.936C523.384 618.378 526.912 620.902 531 620.902C535.088 620.902 538.616 618.378 541.052 614.936C543.499 611.478 545 606.909 545 602.359C545 597.782 543.48 593.99 540.918 591.333C538.356 588.68 534.836 587.244 531 587.244ZM500.2 562C496.364 562 492.844 563.436 490.285 566.09C487.72 568.746 486.2 572.538 486.2 577.113C486.2 581.665 487.701 586.234 490.148 589.693C492.584 593.134 496.112 595.659 500.2 595.659C504.288 595.659 507.816 593.134 510.252 589.693C512.699 586.234 514.2 581.665 514.2 577.115C514.2 572.538 512.68 568.746 510.118 566.09C507.556 563.436 504.036 562 500.2 562Z" fill="#FE9103"/>
<path d="M589.8 613C593.636 613 597.156 614.436 599.718 617.09C602.28 619.746 603.8 623.538 603.8 628.113C603.8 632.665 602.299 637.234 599.852 640.693C597.416 644.134 593.888 646.659 589.8 646.659C585.712 646.659 582.184 644.134 579.748 640.693C577.301 637.234 575.8 632.665 575.8 628.115C575.8 623.538 577.32 619.746 579.885 617.09C582.444 614.436 585.964 613 589.8 613ZM559 638.244C562.836 638.244 566.356 639.68 568.918 642.333C571.48 644.99 573 648.782 573 653.357C573 657.909 571.499 662.478 569.052 665.936C566.616 669.378 563.088 671.902 559 671.902C554.912 671.902 551.384 669.378 548.948 665.936C546.501 662.478 545 657.906 545 653.359C545 648.782 546.52 644.99 549.085 642.333C551.644 639.68 555.164 638.244 559 638.244ZM608 657.878C588.053 657.878 571.527 674.89 566.325 696.221C564.018 705.684 567.537 715.835 576.217 720.646C583.114 724.471 593.434 728 607.997 728C622.563 728 632.884 724.471 639.783 720.646C648.46 715.835 651.98 705.684 649.672 696.224C644.473 674.89 627.944 657.878 608 657.878ZM657 638.244C653.164 638.244 649.644 639.68 647.085 642.333C644.52 644.99 643 648.782 643 653.357C643 657.909 644.501 662.478 646.948 665.936C649.384 669.378 652.912 671.902 657 671.902C661.088 671.902 664.616 669.378 667.052 665.936C669.499 662.478 671 657.909 671 653.359C671 648.782 669.48 644.99 666.918 642.333C664.356 639.68 660.836 638.244 657 638.244ZM626.2 613C622.364 613 618.844 614.436 616.285 617.09C613.72 619.746 612.2 623.538 612.2 628.113C612.2 632.665 613.701 637.234 616.148 640.693C618.584 644.134 622.112 646.659 626.2 646.659C630.288 646.659 633.816 644.134 636.252 640.693C638.699 637.234 640.2 632.665 640.2 628.115C640.2 623.538 638.68 619.746 636.118 617.09C633.556 614.436 630.036 613 626.2 613Z" fill="#FE9103"/>
<path d="M731.8 604C735.636 604 739.156 605.436 741.718 608.09C744.28 610.746 745.8 614.538 745.8 619.113C745.8 623.665 744.299 628.234 741.852 631.693C739.416 635.134 735.888 637.659 731.8 637.659C727.712 637.659 724.184 635.134 721.748 631.693C719.301 628.234 717.8 623.665 717.8 619.115C717.8 614.538 719.32 610.746 721.885 608.09C724.444 605.436 727.964 604 731.8 604ZM701 629.244C704.836 629.244 708.356 630.68 710.918 633.333C713.48 635.99 715 639.782 715 644.357C715 648.909 713.499 653.478 711.052 656.936C708.616 660.378 705.088 662.902 701 662.902C696.912 662.902 693.384 660.378 690.948 656.936C688.501 653.478 687 648.906 687 644.359C687 639.782 688.52 635.99 691.085 633.333C693.644 630.68 697.164 629.244 701 629.244ZM750 648.878C730.053 648.878 713.527 665.89 708.325 687.221C706.018 696.684 709.537 706.835 718.217 711.646C725.114 715.471 735.434 719 749.997 719C764.563 719 774.884 715.471 781.783 711.646C790.46 706.835 793.98 696.684 791.672 687.224C786.473 665.89 769.944 648.878 750 648.878ZM799 629.244C795.164 629.244 791.644 630.68 789.085 633.333C786.52 635.99 785 639.782 785 644.357C785 648.909 786.501 653.478 788.948 656.936C791.384 660.378 794.912 662.902 799 662.902C803.088 662.902 806.616 660.378 809.052 656.936C811.499 653.478 813 648.909 813 644.359C813 639.782 811.48 635.99 808.918 633.333C806.356 630.68 802.836 629.244 799 629.244ZM768.2 604C764.364 604 760.844 605.436 758.285 608.09C755.72 610.746 754.2 614.538 754.2 619.113C754.2 623.665 755.701 628.234 758.148 631.693C760.584 635.134 764.112 637.659 768.2 637.659C772.288 637.659 775.816 635.134 778.252 631.693C780.699 628.234 782.2 623.665 782.2 619.115C782.2 614.538 780.68 610.746 778.118 608.09C775.556 605.436 772.036 604 768.2 604Z" fill="#FE9103"/>
<path d="M235.8 39C239.636 39 243.156 40.4361 245.718 43.0895C248.28 45.7457 249.8 49.5379 249.8 54.1127C249.8 58.665 248.299 63.2341 245.852 66.6926C243.416 70.1341 239.888 72.6585 235.8 72.6585C231.712 72.6585 228.184 70.1341 225.748 66.6926C223.301 63.2341 221.8 58.665 221.8 54.1155C221.8 49.5379 223.32 45.7457 225.885 43.0895C228.444 40.4361 231.964 39 235.8 39ZM205 64.2439C208.836 64.2439 212.356 65.68 214.918 68.3334C217.48 70.9896 219 74.7818 219 79.3566C219 83.9089 217.499 88.478 215.052 91.9365C212.616 95.378 209.088 97.9024 205 97.9024C200.912 97.9024 197.384 95.378 194.948 91.9365C192.501 88.478 191 83.9061 191 79.3594C191 74.7818 192.52 70.9896 195.085 68.3334C197.644 65.68 201.164 64.2439 205 64.2439ZM254 83.878C234.053 83.878 217.527 100.89 212.325 122.221C210.018 131.684 213.537 141.835 222.217 146.646C229.114 150.471 239.434 154 253.997 154C268.563 154 278.884 150.471 285.783 146.646C294.46 141.835 297.98 131.684 295.672 122.224C290.473 100.89 273.944 83.878 254 83.878ZM303 64.2439C299.164 64.2439 295.644 65.68 293.085 68.3334C290.52 70.9896 289 74.7818 289 79.3566C289 83.9089 290.501 88.478 292.948 91.9365C295.384 95.378 298.912 97.9024 303 97.9024C307.088 97.9024 310.616 95.378 313.052 91.9365C315.499 88.478 317 83.9089 317 79.3594C317 74.7818 315.48 70.9896 312.918 68.3334C310.356 65.68 306.836 64.2439 303 64.2439ZM272.2 39C268.364 39 264.844 40.4361 262.285 43.0895C259.72 45.7457 258.2 49.5379 258.2 54.1127C258.2 58.665 259.701 63.2341 262.148 66.6926C264.584 70.1341 268.112 72.6585 272.2 72.6585C276.288 72.6585 279.816 70.1341 282.252 66.6926C284.699 63.2341 286.2 58.665 286.2 54.1155C286.2 49.5379 284.68 45.7457 282.118 43.0895C279.556 40.4361 276.036 39 272.2 39Z" fill="#FE9103"/>
<path d="M505.8 48C509.636 48 513.156 49.4361 515.718 52.0895C518.28 54.7457 519.8 58.5379 519.8 63.1127C519.8 67.665 518.299 72.2341 515.852 75.6926C513.416 79.1341 509.888 81.6585 505.8 81.6585C501.712 81.6585 498.184 79.1341 495.748 75.6926C493.301 72.2341 491.8 67.665 491.8 63.1155C491.8 58.5379 493.32 54.7457 495.885 52.0895C498.444 49.4361 501.964 48 505.8 48ZM475 73.2439C478.836 73.2439 482.356 74.68 484.918 77.3334C487.48 79.9896 489 83.7818 489 88.3566C489 92.9089 487.499 97.478 485.052 100.936C482.616 104.378 479.088 106.902 475 106.902C470.912 106.902 467.384 104.378 464.948 100.936C462.501 97.478 461 92.9061 461 88.3594C461 83.7818 462.52 79.9896 465.085 77.3334C467.644 74.68 471.164 73.2439 475 73.2439ZM524 92.878C504.053 92.878 487.527 109.89 482.325 131.221C480.018 140.684 483.537 150.835 492.217 155.646C499.114 159.471 509.434 163 523.997 163C538.563 163 548.884 159.471 555.783 155.646C564.46 150.835 567.98 140.684 565.672 131.224C560.473 109.89 543.944 92.878 524 92.878ZM573 73.2439C569.164 73.2439 565.644 74.68 563.085 77.3334C560.52 79.9896 559 83.7818 559 88.3566C559 92.9089 560.501 97.478 562.948 100.936C565.384 104.378 568.912 106.902 573 106.902C577.088 106.902 580.616 104.378 583.052 100.936C585.499 97.478 587 92.9089 587 88.3594C587 83.7818 585.48 79.9896 582.918 77.3334C580.356 74.68 576.836 73.2439 573 73.2439ZM542.2 48C538.364 48 534.844 49.4361 532.285 52.0895C529.72 54.7457 528.2 58.5379 528.2 63.1127C528.2 67.665 529.701 72.2341 532.148 75.6926C534.584 79.1341 538.112 81.6585 542.2 81.6585C546.288 81.6585 549.816 79.1341 552.252 75.6926C554.699 72.2341 556.2 67.665 556.2 63.1155C556.2 58.5379 554.68 54.7457 552.118 52.0895C549.556 49.4361 546.036 48 542.2 48Z" fill="#FE9103"/>
<path d="M1152.8 591C1156.64 591 1160.16 592.436 1162.72 595.09C1165.28 597.746 1166.8 601.538 1166.8 606.113C1166.8 610.665 1165.3 615.234 1162.85 618.693C1160.42 622.134 1156.89 624.659 1152.8 624.659C1148.71 624.659 1145.18 622.134 1142.75 618.693C1140.3 615.234 1138.8 610.665 1138.8 606.115C1138.8 601.538 1140.32 597.746 1142.89 595.09C1145.44 592.436 1148.96 591 1152.8 591ZM1122 616.244C1125.84 616.244 1129.36 617.68 1131.92 620.333C1134.48 622.99 1136 626.782 1136 631.357C1136 635.909 1134.5 640.478 1132.05 643.936C1129.62 647.378 1126.09 649.902 1122 649.902C1117.91 649.902 1114.38 647.378 1111.95 643.936C1109.5 640.478 1108 635.906 1108 631.359C1108 626.782 1109.52 622.99 1112.09 620.333C1114.64 617.68 1118.16 616.244 1122 616.244ZM1171 635.878C1151.05 635.878 1134.53 652.89 1129.32 674.221C1127.02 683.684 1130.54 693.835 1139.22 698.646C1146.11 702.471 1156.43 706 1171 706C1185.56 706 1195.88 702.471 1202.78 698.646C1211.46 693.835 1214.98 683.684 1212.67 674.224C1207.47 652.89 1190.94 635.878 1171 635.878ZM1220 616.244C1216.16 616.244 1212.64 617.68 1210.09 620.333C1207.52 622.99 1206 626.782 1206 631.357C1206 635.909 1207.5 640.478 1209.95 643.936C1212.38 647.378 1215.91 649.902 1220 649.902C1224.09 649.902 1227.62 647.378 1230.05 643.936C1232.5 640.478 1234 635.909 1234 631.359C1234 626.782 1232.48 622.99 1229.92 620.333C1227.36 617.68 1223.84 616.244 1220 616.244ZM1189.2 591C1185.36 591 1181.84 592.436 1179.29 595.09C1176.72 597.746 1175.2 601.538 1175.2 606.113C1175.2 610.665 1176.7 615.234 1179.15 618.693C1181.58 622.134 1185.11 624.659 1189.2 624.659C1193.29 624.659 1196.82 622.134 1199.25 618.693C1201.7 615.234 1203.2 610.665 1203.2 606.115C1203.2 601.538 1201.68 597.746 1199.12 595.09C1196.56 592.436 1193.04 591 1189.2 591Z" fill="#FE9103"/>
<path d="M1215.8 469C1219.64 469 1223.16 470.436 1225.72 473.09C1228.28 475.746 1229.8 479.538 1229.8 484.113C1229.8 488.665 1228.3 493.234 1225.85 496.693C1223.42 500.134 1219.89 502.659 1215.8 502.659C1211.71 502.659 1208.18 500.134 1205.75 496.693C1203.3 493.234 1201.8 488.665 1201.8 484.115C1201.8 479.538 1203.32 475.746 1205.89 473.09C1208.44 470.436 1211.96 469 1215.8 469ZM1185 494.244C1188.84 494.244 1192.36 495.68 1194.92 498.333C1197.48 500.99 1199 504.782 1199 509.357C1199 513.909 1197.5 518.478 1195.05 521.936C1192.62 525.378 1189.09 527.902 1185 527.902C1180.91 527.902 1177.38 525.378 1174.95 521.936C1172.5 518.478 1171 513.906 1171 509.359C1171 504.782 1172.52 500.99 1175.09 498.333C1177.64 495.68 1181.16 494.244 1185 494.244ZM1234 513.878C1214.05 513.878 1197.53 530.89 1192.32 552.221C1190.02 561.684 1193.54 571.835 1202.22 576.646C1209.11 580.471 1219.43 584 1234 584C1248.56 584 1258.88 580.471 1265.78 576.646C1274.46 571.835 1277.98 561.684 1275.67 552.224C1270.47 530.89 1253.94 513.878 1234 513.878ZM1283 494.244C1279.16 494.244 1275.64 495.68 1273.09 498.333C1270.52 500.99 1269 504.782 1269 509.357C1269 513.909 1270.5 518.478 1272.95 521.936C1275.38 525.378 1278.91 527.902 1283 527.902C1287.09 527.902 1290.62 525.378 1293.05 521.936C1295.5 518.478 1297 513.909 1297 509.359C1297 504.782 1295.48 500.99 1292.92 498.333C1290.36 495.68 1286.84 494.244 1283 494.244ZM1252.2 469C1248.36 469 1244.84 470.436 1242.29 473.09C1239.72 475.746 1238.2 479.538 1238.2 484.113C1238.2 488.665 1239.7 493.234 1242.15 496.693C1244.58 500.134 1248.11 502.659 1252.2 502.659C1256.29 502.659 1259.82 500.134 1262.25 496.693C1264.7 493.234 1266.2 488.665 1266.2 484.115C1266.2 479.538 1264.68 475.746 1262.12 473.09C1259.56 470.436 1256.04 469 1252.2 469Z" fill="#FE9103"/>
<path d="M1152.8 340C1156.64 340 1160.16 341.436 1162.72 344.09C1165.28 346.746 1166.8 350.538 1166.8 355.113C1166.8 359.665 1165.3 364.234 1162.85 367.693C1160.42 371.134 1156.89 373.659 1152.8 373.659C1148.71 373.659 1145.18 371.134 1142.75 367.693C1140.3 364.234 1138.8 359.665 1138.8 355.115C1138.8 350.538 1140.32 346.746 1142.89 344.09C1145.44 341.436 1148.96 340 1152.8 340ZM1122 365.244C1125.84 365.244 1129.36 366.68 1131.92 369.333C1134.48 371.99 1136 375.782 1136 380.357C1136 384.909 1134.5 389.478 1132.05 392.936C1129.62 396.378 1126.09 398.902 1122 398.902C1117.91 398.902 1114.38 396.378 1111.95 392.936C1109.5 389.478 1108 384.906 1108 380.359C1108 375.782 1109.52 371.99 1112.09 369.333C1114.64 366.68 1118.16 365.244 1122 365.244ZM1171 384.878C1151.05 384.878 1134.53 401.89 1129.32 423.221C1127.02 432.684 1130.54 442.835 1139.22 447.646C1146.11 451.471 1156.43 455 1171 455C1185.56 455 1195.88 451.471 1202.78 447.646C1211.46 442.835 1214.98 432.684 1212.67 423.224C1207.47 401.89 1190.94 384.878 1171 384.878ZM1220 365.244C1216.16 365.244 1212.64 366.68 1210.09 369.333C1207.52 371.99 1206 375.782 1206 380.357C1206 384.909 1207.5 389.478 1209.95 392.936C1212.38 396.378 1215.91 398.902 1220 398.902C1224.09 398.902 1227.62 396.378 1230.05 392.936C1232.5 389.478 1234 384.909 1234 380.359C1234 375.782 1232.48 371.99 1229.92 369.333C1227.36 366.68 1223.84 365.244 1220 365.244ZM1189.2 340C1185.36 340 1181.84 341.436 1179.29 344.09C1176.72 346.746 1175.2 350.538 1175.2 355.113C1175.2 359.665 1176.7 364.234 1179.15 367.693C1181.58 371.134 1185.11 373.659 1189.2 373.659C1193.29 373.659 1196.82 371.134 1199.25 367.693C1201.7 364.234 1203.2 359.665 1203.2 355.115C1203.2 350.538 1201.68 346.746 1199.12 344.09C1196.56 341.436 1193.04 340 1189.2 340Z" fill="#FE9103"/>
<path d="M1215.8 200C1219.64 200 1223.16 201.436 1225.72 204.09C1228.28 206.746 1229.8 210.538 1229.8 215.113C1229.8 219.665 1228.3 224.234 1225.85 227.693C1223.42 231.134 1219.89 233.659 1215.8 233.659C1211.71 233.659 1208.18 231.134 1205.75 227.693C1203.3 224.234 1201.8 219.665 1201.8 215.115C1201.8 210.538 1203.32 206.746 1205.89 204.09C1208.44 201.436 1211.96 200 1215.8 200ZM1185 225.244C1188.84 225.244 1192.36 226.68 1194.92 229.333C1197.48 231.99 1199 235.782 1199 240.357C1199 244.909 1197.5 249.478 1195.05 252.936C1192.62 256.378 1189.09 258.902 1185 258.902C1180.91 258.902 1177.38 256.378 1174.95 252.936C1172.5 249.478 1171 244.906 1171 240.359C1171 235.782 1172.52 231.99 1175.09 229.333C1177.64 226.68 1181.16 225.244 1185 225.244ZM1234 244.878C1214.05 244.878 1197.53 261.89 1192.32 283.221C1190.02 292.684 1193.54 302.835 1202.22 307.646C1209.11 311.471 1219.43 315 1234 315C1248.56 315 1258.88 311.471 1265.78 307.646C1274.46 302.835 1277.98 292.684 1275.67 283.224C1270.47 261.89 1253.94 244.878 1234 244.878ZM1283 225.244C1279.16 225.244 1275.64 226.68 1273.09 229.333C1270.52 231.99 1269 235.782 1269 240.357C1269 244.909 1270.5 249.478 1272.95 252.936C1275.38 256.378 1278.91 258.902 1283 258.902C1287.09 258.902 1290.62 256.378 1293.05 252.936C1295.5 249.478 1297 244.909 1297 240.359C1297 235.782 1295.48 231.99 1292.92 229.333C1290.36 226.68 1286.84 225.244 1283 225.244ZM1252.2 200C1248.36 200 1244.84 201.436 1242.29 204.09C1239.72 206.746 1238.2 210.538 1238.2 215.113C1238.2 219.665 1239.7 224.234 1242.15 227.693C1244.58 231.134 1248.11 233.659 1252.2 233.659C1256.29 233.659 1259.82 231.134 1262.25 227.693C1264.7 224.234 1266.2 219.665 1266.2 215.115C1266.2 210.538 1264.68 206.746 1262.12 204.09C1259.56 201.436 1256.04 200 1252.2 200Z" fill="#FE9103"/>
<path d="M1152.8 78C1156.64 78 1160.16 79.4361 1162.72 82.0895C1165.28 84.7457 1166.8 88.5379 1166.8 93.1127C1166.8 97.665 1165.3 102.234 1162.85 105.693C1160.42 109.134 1156.89 111.659 1152.8 111.659C1148.71 111.659 1145.18 109.134 1142.75 105.693C1140.3 102.234 1138.8 97.665 1138.8 93.1155C1138.8 88.5379 1140.32 84.7457 1142.89 82.0895C1145.44 79.4361 1148.96 78 1152.8 78ZM1122 103.244C1125.84 103.244 1129.36 104.68 1131.92 107.333C1134.48 109.99 1136 113.782 1136 118.357C1136 122.909 1134.5 127.478 1132.05 130.936C1129.62 134.378 1126.09 136.902 1122 136.902C1117.91 136.902 1114.38 134.378 1111.95 130.936C1109.5 127.478 1108 122.906 1108 118.359C1108 113.782 1109.52 109.99 1112.09 107.333C1114.64 104.68 1118.16 103.244 1122 103.244ZM1171 122.878C1151.05 122.878 1134.53 139.89 1129.32 161.221C1127.02 170.684 1130.54 180.835 1139.22 185.646C1146.11 189.471 1156.43 193 1171 193C1185.56 193 1195.88 189.471 1202.78 185.646C1211.46 180.835 1214.98 170.684 1212.67 161.224C1207.47 139.89 1190.94 122.878 1171 122.878ZM1220 103.244C1216.16 103.244 1212.64 104.68 1210.09 107.333C1207.52 109.99 1206 113.782 1206 118.357C1206 122.909 1207.5 127.478 1209.95 130.936C1212.38 134.378 1215.91 136.902 1220 136.902C1224.09 136.902 1227.62 134.378 1230.05 130.936C1232.5 127.478 1234 122.909 1234 118.359C1234 113.782 1232.48 109.99 1229.92 107.333C1227.36 104.68 1223.84 103.244 1220 103.244ZM1189.2 78C1185.36 78 1181.84 79.4361 1179.29 82.0895C1176.72 84.7457 1175.2 88.5379 1175.2 93.1127C1175.2 97.665 1176.7 102.234 1179.15 105.693C1181.58 109.134 1185.11 111.659 1189.2 111.659C1193.29 111.659 1196.82 109.134 1199.25 105.693C1201.7 102.234 1203.2 97.665 1203.2 93.1155C1203.2 88.5379 1201.68 84.7457 1199.12 82.0895C1196.56 79.4361 1193.04 78 1189.2 78Z" fill="#FE9103"/>
<path d="M1026.8 39C1030.64 39 1034.16 40.4361 1036.72 43.0895C1039.28 45.7457 1040.8 49.5379 1040.8 54.1127C1040.8 58.665 1039.3 63.2341 1036.85 66.6926C1034.42 70.1341 1030.89 72.6585 1026.8 72.6585C1022.71 72.6585 1019.18 70.1341 1016.75 66.6926C1014.3 63.2341 1012.8 58.665 1012.8 54.1155C1012.8 49.5379 1014.32 45.7457 1016.89 43.0895C1019.44 40.4361 1022.96 39 1026.8 39ZM996 64.2439C999.836 64.2439 1003.36 65.68 1005.92 68.3334C1008.48 70.9896 1010 74.7818 1010 79.3566C1010 83.9089 1008.5 88.478 1006.05 91.9365C1003.62 95.378 1000.09 97.9024 996 97.9024C991.912 97.9024 988.384 95.378 985.948 91.9365C983.501 88.478 982 83.9061 982 79.3594C982 74.7818 983.52 70.9896 986.085 68.3334C988.644 65.68 992.164 64.2439 996 64.2439ZM1045 83.878C1025.05 83.878 1008.53 100.89 1003.32 122.221C1001.02 131.684 1004.54 141.835 1013.22 146.646C1020.11 150.471 1030.43 154 1045 154C1059.56 154 1069.88 150.471 1076.78 146.646C1085.46 141.835 1088.98 131.684 1086.67 122.224C1081.47 100.89 1064.94 83.878 1045 83.878ZM1094 64.2439C1090.16 64.2439 1086.64 65.68 1084.09 68.3334C1081.52 70.9896 1080 74.7818 1080 79.3566C1080 83.9089 1081.5 88.478 1083.95 91.9365C1086.38 95.378 1089.91 97.9024 1094 97.9024C1098.09 97.9024 1101.62 95.378 1104.05 91.9365C1106.5 88.478 1108 83.9089 1108 79.3594C1108 74.7818 1106.48 70.9896 1103.92 68.3334C1101.36 65.68 1097.84 64.2439 1094 64.2439ZM1063.2 39C1059.36 39 1055.84 40.4361 1053.29 43.0895C1050.72 45.7457 1049.2 49.5379 1049.2 54.1127C1049.2 58.665 1050.7 63.2341 1053.15 66.6926C1055.58 70.1341 1059.11 72.6585 1063.2 72.6585C1067.29 72.6585 1070.82 70.1341 1073.25 66.6926C1075.7 63.2341 1077.2 58.665 1077.2 54.1155C1077.2 49.5379 1075.68 45.7457 1073.12 43.0895C1070.56 40.4361 1067.04 39 1063.2 39Z" fill="#FE9103"/>
<path d="M900.8 0C904.636 0 908.156 1.4361 910.718 4.08951C913.28 6.74573 914.8 10.5379 914.8 15.1127C914.8 19.665 913.299 24.2341 910.852 27.6926C908.416 31.1341 904.888 33.6585 900.8 33.6585C896.712 33.6585 893.184 31.1341 890.748 27.6926C888.301 24.2341 886.8 19.665 886.8 15.1155C886.8 10.5379 888.32 6.74573 890.885 4.08951C893.444 1.4361 896.964 0 900.8 0ZM870 25.2439C873.836 25.2439 877.356 26.68 879.918 29.3334C882.48 31.9896 884 35.7818 884 40.3566C884 44.9089 882.499 49.478 880.052 52.9365C877.616 56.378 874.088 58.9024 870 58.9024C865.912 58.9024 862.384 56.378 859.948 52.9365C857.501 49.478 856 44.9061 856 40.3594C856 35.7818 857.52 31.9896 860.085 29.3334C862.644 26.68 866.164 25.2439 870 25.2439ZM919 44.878C899.053 44.878 882.527 61.8896 877.325 83.2207C875.018 92.6844 878.537 102.835 887.217 107.646C894.114 111.471 904.434 115 918.997 115C933.563 115 943.884 111.471 950.783 107.646C959.46 102.835 962.98 92.6844 960.672 83.2235C955.473 61.8896 938.944 44.878 919 44.878ZM968 25.2439C964.164 25.2439 960.644 26.68 958.085 29.3334C955.52 31.9896 954 35.7818 954 40.3566C954 44.9089 955.501 49.478 957.948 52.9365C960.384 56.378 963.912 58.9024 968 58.9024C972.088 58.9024 975.616 56.378 978.052 52.9365C980.499 49.478 982 44.9089 982 40.3594C982 35.7818 980.48 31.9896 977.918 29.3334C975.356 26.68 971.836 25.2439 968 25.2439ZM937.2 0C933.364 0 929.844 1.4361 927.285 4.08951C924.72 6.74573 923.2 10.5379 923.2 15.1127C923.2 19.665 924.701 24.2341 927.148 27.6926C929.584 31.1341 933.112 33.6585 937.2 33.6585C941.288 33.6585 944.816 31.1341 947.252 27.6926C949.699 24.2341 951.2 19.665 951.2 15.1155C951.2 10.5379 949.68 6.74573 947.118 4.08951C944.556 1.4361 941.036 0 937.2 0Z" fill="#FE9103"/>
<path d="M774.8 39C778.636 39 782.156 40.4361 784.718 43.0895C787.28 45.7457 788.8 49.5379 788.8 54.1127C788.8 58.665 787.299 63.2341 784.852 66.6926C782.416 70.1341 778.888 72.6585 774.8 72.6585C770.712 72.6585 767.184 70.1341 764.748 66.6926C762.301 63.2341 760.8 58.665 760.8 54.1155C760.8 49.5379 762.32 45.7457 764.885 43.0895C767.444 40.4361 770.964 39 774.8 39ZM744 64.2439C747.836 64.2439 751.356 65.68 753.918 68.3334C756.48 70.9896 758 74.7818 758 79.3566C758 83.9089 756.499 88.478 754.052 91.9365C751.616 95.378 748.088 97.9024 744 97.9024C739.912 97.9024 736.384 95.378 733.948 91.9365C731.501 88.478 730 83.9061 730 79.3594C730 74.7818 731.52 70.9896 734.085 68.3334C736.644 65.68 740.164 64.2439 744 64.2439ZM793 83.878C773.053 83.878 756.527 100.89 751.325 122.221C749.018 131.684 752.537 141.835 761.217 146.646C768.114 150.471 778.434 154 792.997 154C807.563 154 817.884 150.471 824.783 146.646C833.46 141.835 836.98 131.684 834.672 122.224C829.473 100.89 812.944 83.878 793 83.878ZM842 64.2439C838.164 64.2439 834.644 65.68 832.085 68.3334C829.52 70.9896 828 74.7818 828 79.3566C828 83.9089 829.501 88.478 831.948 91.9365C834.384 95.378 837.912 97.9024 842 97.9024C846.088 97.9024 849.616 95.378 852.052 91.9365C854.499 88.478 856 83.9089 856 79.3594C856 74.7818 854.48 70.9896 851.918 68.3334C849.356 65.68 845.836 64.2439 842 64.2439ZM811.2 39C807.364 39 803.844 40.4361 801.285 43.0895C798.72 45.7457 797.2 49.5379 797.2 54.1127C797.2 58.665 798.701 63.2341 801.148 66.6926C803.584 70.1341 807.112 72.6585 811.2 72.6585C815.288 72.6585 818.816 70.1341 821.252 66.6926C823.699 63.2341 825.2 58.665 825.2 54.1155C825.2 49.5379 823.68 45.7457 821.118 43.0895C818.556 40.4361 815.036 39 811.2 39Z" fill="#FE9103"/>
</svg>
