<svg width="718" height="654" viewBox="0 0 718 654" fill="none" xmlns="http://www.w3.org/2000/svg">
<path d="M255.289 0C277.148 0 297.204 8.16703 311.803 23.2569C326.403 38.3627 335.067 59.9287 335.067 85.9452C335.067 111.834 326.514 137.819 312.569 157.486C298.688 177.059 278.584 191.415 255.289 191.415C231.994 191.415 211.89 177.059 198.008 157.486C184.063 137.819 175.511 111.834 175.511 85.9611C175.511 59.9287 184.175 38.3627 198.79 23.2569C213.374 8.16703 233.43 0 255.289 0ZM79.7778 143.561C101.637 143.561 121.693 151.728 136.292 166.818C150.892 181.924 159.556 203.49 159.556 229.506C159.556 255.395 151.003 281.379 137.058 301.047C123.177 320.619 103.073 334.976 79.7778 334.976C56.4827 334.976 36.3787 320.619 22.4973 301.047C8.55218 281.379 0 255.379 0 229.522C0 203.49 8.66387 181.924 23.2792 166.818C37.8625 151.728 57.9187 143.561 79.7778 143.561ZM359 255.22C245.333 255.22 151.163 351.964 121.518 473.273C108.37 527.092 128.426 584.82 177.888 612.176C217.187 633.933 275.999 654 358.984 654C441.985 654 500.797 633.933 540.112 612.176C589.558 584.82 609.614 527.092 596.466 473.289C566.837 351.964 472.651 255.22 359 255.22ZM638.222 143.561C616.363 143.561 596.307 151.728 581.724 166.818C567.108 181.924 558.444 203.49 558.444 229.506C558.444 255.395 566.997 281.379 580.942 301.047C594.823 320.619 614.927 334.976 638.222 334.976C661.517 334.976 681.621 320.619 695.503 301.047C709.448 281.379 718 255.395 718 229.522C718 203.49 709.336 181.924 694.737 166.818C680.137 151.728 660.081 143.561 638.222 143.561ZM462.711 0C440.852 0 420.796 8.16703 406.212 23.2569C391.597 38.3627 382.933 59.9287 382.933 85.9452C382.933 111.834 391.485 137.819 405.431 157.486C419.312 177.059 439.416 191.415 462.711 191.415C486.006 191.415 506.11 177.059 519.992 157.486C533.937 137.819 542.489 111.834 542.489 85.9611C542.489 59.9287 533.825 38.3627 519.226 23.2569C504.626 8.16703 484.57 0 462.711 0Z" fill="#FE9103"/>
</svg>
