<svg width="47" height="44" viewBox="0 0 47 44" fill="none" xmlns="http://www.w3.org/2000/svg">
<path d="M16.308 0.601342C17.952 0.601342 19.4604 1.16329 20.5584 2.20159C21.6564 3.24098 22.308 4.72488 22.308 6.515C22.308 8.29634 21.6648 10.0843 20.616 11.4376C19.572 12.7843 18.06 13.7721 16.308 13.7721C14.556 13.7721 13.044 12.7843 12 11.4376C10.9512 10.0843 10.308 8.29634 10.308 6.5161C10.308 4.72488 10.9596 3.24098 12.0588 2.20159C13.1556 1.16329 14.664 0.601342 16.308 0.601342ZM6 10.0863C7.644 10.0863 9.1524 10.6483 10.2504 11.6866C11.3484 12.726 12 14.2099 12 16C12 17.7813 11.3568 19.5693 10.308 20.9226C9.264 22.2693 7.752 23.2571 6 23.2571C4.248 23.2571 2.736 22.2693 1.692 20.9226C0.6432 19.5693 0 17.7802 0 16.0011C0 14.2099 0.6516 12.726 1.7508 11.6866C2.8476 10.6483 4.356 10.0863 6 10.0863ZM23.308 16.561C14.7592 16.561 7.67677 23.2177 5.44717 31.5646C4.45837 35.2678 5.96677 39.2398 9.68677 41.1222C12.6424 42.6192 17.0656 44 23.3068 44C29.5492 44 33.9724 42.6192 36.9292 41.1222C40.648 39.2398 42.1564 35.2678 41.1676 31.5657C38.9392 23.2177 31.8556 16.561 23.308 16.561ZM40.308 9.8362C38.664 9.8362 37.1556 10.3981 36.0588 11.4364C34.9596 12.4758 34.308 13.9597 34.308 15.7499C34.308 17.5312 34.9512 19.3191 36 20.6724C37.044 22.0191 38.556 23.0069 40.308 23.0069C42.06 23.0069 43.572 22.0191 44.616 20.6724C45.6648 19.3191 46.308 17.5312 46.308 15.751C46.308 13.9597 45.6564 12.4758 44.5584 11.4364C43.4604 10.3981 41.952 9.8362 40.308 9.8362ZM29.308 0.60022C27.664 0.60022 26.1556 1.16217 25.0588 2.20046C23.9596 3.23985 23.308 4.72376 23.308 6.51388C23.308 8.29522 23.9512 10.0831 25 11.4364C26.044 12.7831 27.556 13.771 29.308 13.771C31.06 13.771 32.572 12.7831 33.616 11.4364C34.6648 10.0831 35.308 8.29522 35.308 6.51498C35.308 4.72376 34.6564 3.23985 33.5584 2.20046C32.4604 1.16217 30.952 0.60022 29.308 0.60022Z" fill="#FE9103"/>
<path d="M9.95339 34.6761C9.81252 34.676 9.67304 34.6481 9.54294 34.5941C9.41283 34.5401 9.29465 34.4609 9.19514 34.3612C9.09563 34.2615 9.01674 34.1431 8.96298 34.0129C8.90923 33.8827 8.88165 33.7432 8.88184 33.6023C8.88184 30.1365 10.3699 26.1748 12.8623 23.0046C15.6563 19.4513 19.1901 17.4944 22.8132 17.4944C22.9541 17.4945 23.0935 17.5223 23.2236 17.5764C23.3537 17.6304 23.4719 17.7095 23.5714 17.8093C23.671 17.909 23.7498 18.0273 23.8036 18.1575C23.8574 18.2878 23.8849 18.4273 23.8847 18.5682C23.8849 18.709 23.8573 18.8485 23.8035 18.9787C23.7497 19.1089 23.6709 19.2273 23.5714 19.327C23.4719 19.4267 23.3537 19.5058 23.2236 19.5599C23.0935 19.6139 22.9541 19.6418 22.8132 19.642C16.5751 19.642 11.0249 27.4486 11.0249 33.602C11.0251 33.7429 10.9976 33.8824 10.9438 34.0127C10.8901 34.1429 10.8112 34.2613 10.7117 34.361C10.6122 34.4608 10.494 34.5399 10.3639 34.594C10.2338 34.648 10.0943 34.6759 9.95339 34.6761Z" fill="#500E9C"/>
<path d="M35.6733 34.6761C35.5324 34.676 35.3929 34.6481 35.2628 34.5941C35.1327 34.5401 35.0145 34.4609 34.915 34.3612C34.8155 34.2615 34.7366 34.1431 34.6829 34.0129C34.6291 33.8827 34.6015 33.7432 34.6017 33.6023C34.6017 27.4489 29.0513 19.6423 22.8135 19.6423C22.6726 19.6421 22.5331 19.6143 22.403 19.5602C22.2729 19.5062 22.1547 19.4271 22.0552 19.3274C21.9557 19.2276 21.8768 19.1093 21.8231 18.9791C21.7693 18.8489 21.7417 18.7093 21.7419 18.5684C21.7418 18.4276 21.7694 18.2881 21.8231 18.1579C21.8769 18.0277 21.9558 17.9093 22.0553 17.8096C22.1548 17.7099 22.273 17.6308 22.4031 17.5767C22.5331 17.5227 22.6726 17.4948 22.8135 17.4946C26.4365 17.4946 29.9704 19.4516 32.7643 23.0049C35.257 26.1751 36.7451 30.1368 36.7451 33.6026C36.7453 33.887 36.6324 34.1599 36.4314 34.3612C36.2304 34.5625 35.9577 34.6758 35.6733 34.6761Z" fill="#500E9C"/>
<path d="M15.0974 39.6874C11.6701 39.6874 8.88184 36.9576 8.88184 33.6023C8.88169 33.4614 8.90929 33.3219 8.96306 33.1917C9.01683 33.0615 9.09572 32.9432 9.19522 32.8435C9.29472 32.7437 9.41289 32.6646 9.54298 32.6106C9.67307 32.5565 9.81253 32.5286 9.95339 32.5285C10.0943 32.5286 10.2337 32.5565 10.3638 32.6105C10.494 32.6645 10.6121 32.7437 10.7116 32.8434C10.8112 32.9431 10.89 33.0614 10.9438 33.1917C10.9976 33.3219 11.0251 33.4614 11.0249 33.6023C11.0249 35.7735 12.8517 37.5398 15.0971 37.5398C15.6892 37.5398 16.1687 38.0204 16.1687 38.6136C16.1687 39.2067 15.6892 39.6874 15.0974 39.6874Z" fill="#500E9C"/>
<path d="M30.5292 39.6874C29.9372 39.6874 29.4577 39.2067 29.4577 38.6136C29.4577 38.0204 29.9375 37.5398 30.5292 37.5398C32.7747 37.5398 34.6014 35.7735 34.6014 33.6023C34.6014 33.0091 35.0812 32.5285 35.673 32.5285C36.2647 32.5285 36.7445 33.0091 36.7445 33.6023C36.7448 36.9576 33.9565 39.6874 30.5292 39.6874Z" fill="#500E9C"/>
<path d="M15.0974 39.6874C14.5054 39.6874 14.0259 39.2067 14.0259 38.6136C14.0259 38.0204 14.5057 37.5398 15.0974 37.5398C16.4401 37.5398 17.1123 37.1646 17.9631 36.6893C18.9981 36.1113 20.2862 35.3919 22.8132 35.3919C23.4052 35.3919 23.8847 35.8725 23.8847 36.4657C23.8847 37.0588 23.4049 37.5395 22.8132 37.5395C20.843 37.5395 19.9509 38.0379 19.0062 38.5652C18.0646 39.0911 16.997 39.6874 15.0974 39.6874Z" fill="#500E9C"/>
<path d="M30.5292 39.6874C28.6297 39.6874 27.5621 39.0911 26.6202 38.5655C25.6757 38.0381 24.7833 37.5398 22.8132 37.5398C22.2212 37.5398 21.7416 37.0591 21.7416 36.466C21.7416 35.8728 22.2214 35.3922 22.8132 35.3922C25.3402 35.3922 26.6283 36.1113 27.6633 36.6896C28.5141 37.1646 29.186 37.54 30.529 37.54C31.121 37.54 31.6005 38.0207 31.6005 38.6139C31.6005 39.207 31.121 39.6874 30.5292 39.6874Z" fill="#500E9C"/>
<path d="M16.3833 13.9149C13.4288 13.9149 11.0249 10.8639 11.0249 7.11377C11.0249 3.3636 13.4288 0.312623 16.3833 0.312623C19.3378 0.312623 21.7416 3.3636 21.7416 7.11377C21.7416 10.8639 19.3378 13.9149 16.3833 13.9149ZM16.3833 2.46024C14.6407 2.46024 13.1683 4.59125 13.1683 7.11349C13.1683 9.63572 14.6407 11.7667 16.3833 11.7667C18.1259 11.7667 19.5982 9.63572 19.5982 7.11349C19.5982 4.59125 18.1259 2.46024 16.3833 2.46024Z" fill="#500E9C"/>
<path d="M29.2431 13.9149C26.2886 13.9149 23.8848 10.8639 23.8848 7.11377C23.8848 3.3636 26.2886 0.312623 29.2431 0.312623C32.1976 0.312623 34.6014 3.3636 34.6014 7.11377C34.6014 10.8639 32.1979 13.9149 29.2431 13.9149ZM29.2431 2.46024C27.5005 2.46024 26.0281 4.59125 26.0281 7.11349C26.0281 9.63572 27.5005 11.7667 29.2431 11.7667C30.9857 11.7667 32.458 9.63572 32.458 7.11349C32.458 4.59125 30.9857 2.46024 29.2431 2.46024Z" fill="#500E9C"/>
<path d="M38.4098 22.9042C37.6128 22.9042 36.8511 22.7059 36.1677 22.3102C34.8771 21.5637 34.0541 20.2236 33.8513 18.5375C33.6623 16.9659 34.0423 15.2607 34.9204 13.736C36.7918 10.4885 40.3957 9.05045 42.9548 10.5307C45.5133 12.0109 46.0727 15.8575 44.2018 19.1054H44.2016C43.3229 20.63 42.0393 21.8124 40.5864 22.4339C39.8532 22.7475 39.1174 22.9042 38.4098 22.9042ZM40.7076 12.0879C40.286 12.0879 39.836 12.1861 39.3779 12.3821C38.3485 12.8225 37.4249 13.6849 36.7766 14.8098C36.1286 15.9346 35.8454 17.1673 35.9793 18.2805C36.0996 19.2794 36.5468 20.0498 37.2393 20.4503C37.9317 20.8513 38.821 20.8542 39.7443 20.459C40.7737 20.0183 41.6973 19.156 42.3456 18.0313C43.6039 15.8465 43.3921 13.2635 41.8832 12.3908C41.5348 12.1889 41.1357 12.0879 40.7076 12.0879Z" fill="#500E9C"/>
<path d="M7.21685 22.9042C6.50895 22.9042 5.77348 22.7478 5.03999 22.4339C3.58734 21.8124 2.30344 20.63 1.42482 19.1053C0.546203 17.5807 0.166518 15.8755 0.355517 14.3039C0.558297 12.6175 1.38067 11.2776 2.6716 10.5309C3.96253 9.7845 5.53189 9.74063 7.09029 10.4075C8.54293 11.0293 9.82683 12.2117 10.7055 13.7363C11.5841 15.261 11.9638 16.9662 11.7748 18.5378C11.572 20.2242 10.7496 21.564 9.45868 22.3107C8.77525 22.7059 8.01363 22.9042 7.21685 22.9042ZM4.91877 12.0879C4.49071 12.0879 4.09218 12.1889 3.74343 12.3905C3.051 12.7913 2.60382 13.5617 2.48344 14.5607C2.34985 15.6738 2.63307 16.9063 3.28106 18.0313C3.92906 19.1563 4.85296 20.0183 5.88205 20.459C6.80538 20.8542 7.69497 20.8511 8.38741 20.4506C9.07984 20.0498 9.52702 19.2794 9.6474 18.2804C9.78127 17.1673 9.49805 15.9348 8.84978 14.8098C8.2015 13.6849 7.27788 12.8225 6.24879 12.3821C5.79036 12.1861 5.34036 12.0879 4.91877 12.0879Z" fill="#500E9C"/>
</svg>
