<svg width="135" height="135" viewBox="0 0 135 135" fill="none" xmlns="http://www.w3.org/2000/svg">
<circle cx="67.5" cy="67.5" r="67.5" fill="#500E9C"/>
<path d="M94.0002 84.25C95.8636 84.25 97.4344 84.9 98.7127 86.2C99.9911 87.5 100.619 89.0167 100.598 90.75L74.5002 100.5L51.7502 94V64.75H58.0877L81.7152 73.4925C83.4052 74.1642 84.2502 75.3775 84.2502 77.1325C84.2502 78.1508 83.8819 79.0392 83.1452 79.7975C82.4086 80.5558 81.4769 80.9567 80.3502 81H71.2502L65.5627 78.8225L64.4902 81.8775L71.2502 84.25H94.0002ZM81.0002 39.4975C83.2969 36.8325 86.2219 35.5 89.7752 35.5C92.7219 35.5 95.2136 36.5833 97.2502 38.75C99.2869 40.9167 100.37 43.4083 100.5 46.225C100.5 48.4567 99.4169 51.1217 97.2502 54.22C95.0836 57.3183 92.9494 59.9075 90.8477 61.9875C88.7461 64.0675 85.4636 67.155 81.0002 71.25C76.4936 67.155 73.1786 64.0675 71.0552 61.9875C68.9319 59.9075 66.7977 57.3183 64.6527 54.22C62.5077 51.1217 61.4569 48.4567 61.5002 46.225C61.5002 43.2783 62.5511 40.7867 64.6527 38.75C66.7544 36.7133 69.2894 35.63 72.2577 35.5C75.7244 35.5 78.6386 36.8325 81.0002 39.4975ZM32.1982 64.75H45.2502V100.5H32.1982V64.75Z" fill="white"/>
</svg>
