<svg width="85" height="48" viewBox="0 0 85 48" fill="none" xmlns="http://www.w3.org/2000/svg">
<path d="M3.25 20.6829C1.45507 20.6829 1.56917e-07 22.1379 0 23.9329C-1.56917e-07 25.7278 1.45507 27.1829 3.25 27.1829L3.25 23.9329L3.25 20.6829ZM83.5481 26.231C84.8173 24.9618 84.8173 22.904 83.5481 21.6348L62.8652 0.951904C61.596 -0.3173 59.5382 -0.3173 58.269 0.951903C56.9998 2.22111 56.9998 4.27889 58.269 5.5481L76.6538 23.9329L58.269 42.3177C56.9998 43.5869 56.9998 45.6446 58.269 46.9138C59.5382 48.183 61.596 48.183 62.8652 46.9138L83.5481 26.231ZM3.25 23.9329L3.25 27.1829L81.25 27.1829L81.25 23.9329L81.25 20.6829L3.25 20.6829L3.25 23.9329Z" fill="#500E9C"/>
</svg>
