<svg width="23" height="23" viewBox="0 0 23 23" fill="none" xmlns="http://www.w3.org/2000/svg">
<path d="M15.5906 18.5258L8.58707 11.3412L15.5906 4.15656C15.716 4.0282 15.7862 3.85588 15.7862 3.67644C15.7862 3.497 15.716 3.32467 15.5906 3.19631C15.5297 3.13416 15.457 3.08478 15.3768 3.05107C15.2965 3.01736 15.2104 3 15.1234 3C15.0364 3 14.9502 3.01736 14.87 3.05107C14.7898 3.08478 14.7171 3.13416 14.6562 3.19631L7.20419 10.8395C7.07336 10.9737 7.00014 11.1538 7.00014 11.3412C7.00014 11.5286 7.07336 11.7087 7.20419 11.8429L14.6548 19.4861C14.7157 19.5487 14.7886 19.5984 14.8691 19.6324C14.9495 19.6663 15.036 19.6838 15.1234 19.6838C15.2107 19.6838 15.2972 19.6663 15.3777 19.6324C15.4582 19.5984 15.5311 19.5487 15.592 19.4861C15.7174 19.3577 15.7876 19.1854 15.7876 19.0059C15.7876 18.8265 15.7174 18.6542 15.592 18.5258L15.5906 18.5258Z" fill="#2C2C2C"/>
</svg>
