<svg width="25" height="22" viewBox="0 0 25 22" fill="none" xmlns="http://www.w3.org/2000/svg">
<path opacity="0.2" d="M24.159 1.6251V11.4463C24.159 16.8702 18.9648 21.2674 12.5626 21.2674C6.1605 21.2674 0.966309 16.8702 0.966309 11.4463V1.6251C0.966158 1.44842 1.02275 1.27566 1.12893 1.1287C1.2351 0.981749 1.38608 0.867204 1.56276 0.79957C1.73943 0.731936 1.93385 0.714253 2.12141 0.748762C2.30896 0.78327 2.48122 0.868417 2.61637 0.993424L5.26661 3.81254C7.38811 2.39082 9.94182 1.62523 12.5626 1.62523C15.1835 1.62523 17.7372 2.39082 19.8587 3.81254L22.5089 0.995656C22.6439 0.870784 22.8159 0.785682 23.0033 0.751102C23.1906 0.716522 23.3848 0.734017 23.5614 0.801375C23.738 0.868732 23.889 0.982931 23.9953 1.12954C24.1017 1.27616 24.1586 1.44861 24.159 1.6251Z" fill="#500E9C"/>
<path d="M8.65385 11.8796C8.65385 12.1407 8.56926 12.3959 8.41077 12.613C8.25229 12.8301 8.02703 12.9993 7.76349 13.0992C7.49994 13.1991 7.20994 13.2252 6.93016 13.1743C6.65038 13.1234 6.39338 12.9977 6.19167 12.813C5.98996 12.6284 5.8526 12.3932 5.79694 12.1372C5.74129 11.8811 5.76985 11.6157 5.87902 11.3745C5.98818 11.1333 6.17305 10.9271 6.41024 10.782C6.64742 10.637 6.92628 10.5596 7.21154 10.5596C7.59406 10.5596 7.96092 10.6987 8.2314 10.9462C8.50189 11.1938 8.65385 11.5295 8.65385 11.8796ZM17.7885 10.5596C17.5032 10.5596 17.2243 10.637 16.9872 10.782C16.75 10.9271 16.5651 11.1333 16.4559 11.3745C16.3468 11.6157 16.3182 11.8811 16.3739 12.1372C16.4295 12.3932 16.5669 12.6284 16.7686 12.813C16.9703 12.9977 17.2273 13.1234 17.5071 13.1743C17.7869 13.2252 18.0769 13.1991 18.3404 13.0992C18.604 12.9993 18.8292 12.8301 18.9877 12.613C19.1462 12.3959 19.2308 12.1407 19.2308 11.8796C19.2308 11.5295 19.0788 11.1938 18.8083 10.9462C18.5378 10.6987 18.171 10.5596 17.7885 10.5596ZM25 1.75925V11.4396C25 17.2621 19.393 22 12.5 22C5.60697 22 0 17.2621 0 11.4396V1.75925C0.000176186 1.41126 0.113058 1.07113 0.324381 0.781837C0.535703 0.492546 0.835981 0.26708 1.18727 0.133932C1.53855 0.000784004 1.92508 -0.0340696 2.29801 0.0337754C2.67093 0.10162 3.01351 0.269119 3.28245 0.515104C3.29928 0.530505 3.3137 0.544805 3.32812 0.560206L5.40865 2.74929C7.53599 1.52943 9.99563 0.882473 12.506 0.882473C15.0164 0.882473 17.476 1.52943 19.6034 2.74929L21.6719 0.560206C21.6863 0.544805 21.7007 0.530505 21.7175 0.515104C21.9865 0.269119 22.3291 0.10162 22.702 0.0337754C23.0749 -0.0340696 23.4614 0.000784004 23.8127 0.133932C24.164 0.26708 24.4643 0.492546 24.6756 0.781837C24.8869 1.07113 24.9998 1.41126 25 1.75925ZM23.0769 1.75925L20.4856 4.48735C20.3271 4.65519 20.1051 4.76204 19.8642 4.78652C19.6233 4.811 19.3812 4.75129 19.1863 4.61936C18.5996 4.22243 17.9702 3.88148 17.3077 3.60182V6.15941C17.3077 6.39281 17.2064 6.61665 17.0261 6.78169C16.8457 6.94673 16.6012 7.03945 16.3462 7.03945C16.0911 7.03945 15.8466 6.94673 15.6662 6.78169C15.4859 6.61665 15.3846 6.39281 15.3846 6.15941V2.9748C14.7538 2.82627 14.1105 2.72618 13.4615 2.67558V6.15941C13.4615 6.39281 13.3602 6.61665 13.1799 6.78169C12.9996 6.94673 12.755 7.03945 12.5 7.03945C12.245 7.03945 12.0004 6.94673 11.8201 6.78169C11.6398 6.61665 11.5385 6.39281 11.5385 6.15941V2.67558C10.8895 2.72618 10.2462 2.82627 9.61538 2.9748V6.15941C9.61538 6.39281 9.51408 6.61665 9.33376 6.78169C9.15343 6.94673 8.90886 7.03945 8.65385 7.03945C8.39883 7.03945 8.15426 6.94673 7.97394 6.78169C7.79361 6.61665 7.69231 6.39281 7.69231 6.15941V3.60182C7.02983 3.88148 6.40035 4.22243 5.8137 4.61936C5.61926 4.75168 5.3774 4.81194 5.1365 4.78807C4.8956 4.76421 4.67343 4.65799 4.51442 4.49065L1.92308 1.75925V11.4396C1.92308 16.0224 6.15505 19.7999 11.5385 20.2036V17.9639L9.89663 16.4613C9.80738 16.3795 9.73659 16.2825 9.68831 16.1757C9.64004 16.0689 9.61522 15.9544 9.61527 15.8388C9.61533 15.7233 9.64026 15.6088 9.68864 15.5021C9.73702 15.3953 9.8079 15.2983 9.89724 15.2166C10.0777 15.0516 10.3223 14.959 10.5773 14.9591C10.7036 14.9591 10.8287 14.982 10.9453 15.0262C11.062 15.0705 11.168 15.1354 11.2572 15.2171L12.5 16.3546L13.7428 15.2171C13.832 15.1354 13.938 15.0705 14.0547 15.0262C14.1713 14.982 14.2964 14.9591 14.4227 14.9591C14.5489 14.959 14.674 14.9818 14.7907 15.0259C14.9074 15.0701 15.0134 15.1349 15.1028 15.2166C15.1921 15.2983 15.263 15.3953 15.3114 15.5021C15.3597 15.6088 15.3847 15.7233 15.3847 15.8388C15.3848 15.9544 15.36 16.0689 15.3117 16.1757C15.2634 16.2825 15.1926 16.3795 15.1034 16.4613L13.4615 17.9639V20.2036C18.845 19.7977 23.0769 16.0235 23.0769 11.4396V1.75925Z" fill="#500E9C"/>
</svg>
