<svg width="135" height="135" viewBox="0 0 135 135" fill="none" xmlns="http://www.w3.org/2000/svg">
<path d="M67.5 65.7816C77.246 65.7816 85.8675 74.0493 88.8105 85.2679L88.9463 85.805C90.0438 90.2974 88.3317 94.87 84.498 96.9915V96.9925C80.9168 98.9749 75.4201 100.885 67.498 100.885C59.5775 100.885 54.0813 98.9747 50.502 96.9925L50.501 96.9915C46.6663 94.8699 44.9542 90.2971 46.0518 85.8031C48.8589 74.3138 57.5977 65.7816 67.5 65.7816ZM39.4268 54.5521C40.8916 54.5521 42.1736 55.0584 43.126 55.9466L43.3125 56.1292C44.2759 57.127 44.9482 58.6471 44.9482 60.6956C44.9482 62.7815 44.2484 64.8889 43.1465 66.4437C42.0304 68.0178 40.6787 68.8021 39.4268 68.8021C38.1749 68.8019 36.8231 68.0177 35.707 66.4437C34.6052 64.8889 33.9062 62.7793 33.9062 60.6966C33.9063 58.6456 34.5794 57.1264 35.5439 56.1292L35.5449 56.1283C36.511 55.1284 37.8642 54.5522 39.4268 54.5521ZM95.5732 54.5521C97.0378 54.5522 98.3192 55.0586 99.2715 55.9466L99.458 56.1292C100.421 57.1268 101.094 58.6463 101.094 60.6966C101.094 62.7807 100.395 64.8887 99.293 66.4437C98.1769 68.0177 96.8251 68.8019 95.5732 68.8021C94.3213 68.8021 92.9687 68.0178 91.8525 66.4437C90.7508 64.889 90.0518 62.7813 90.0518 60.6956C90.0518 58.6464 90.7248 57.1266 91.6895 56.1292L91.6904 56.1283C92.6565 55.1283 94.0105 54.5521 95.5732 54.5521ZM57.0732 40.1146C58.5378 40.1147 59.8192 40.6211 60.7715 41.5091L60.958 41.6917C61.9215 42.6895 62.5938 44.2095 62.5938 46.2581C62.5937 48.3439 61.8948 50.4515 60.793 52.0062C59.6769 53.5802 58.3251 54.3644 57.0732 54.3646C55.8213 54.3646 54.4687 53.5803 53.3525 52.0062C52.2506 50.4513 51.5518 48.3431 51.5518 46.2591C51.5518 44.2082 52.225 42.6889 53.1895 41.6917L53.1904 41.6908C54.1565 40.6908 55.5105 40.1146 57.0732 40.1146ZM77.9268 40.1146C79.3916 40.1146 80.6736 40.6209 81.626 41.5091L81.8125 41.6917C82.7757 42.6893 83.4482 44.2089 83.4482 46.2591C83.4482 48.3433 82.7486 50.4512 81.6465 52.0062C80.5304 53.5803 79.1787 54.3646 77.9268 54.3646C76.6749 54.3644 75.3231 53.5802 74.207 52.0062C73.1052 50.4515 72.4063 48.3439 72.4062 46.2581C72.4062 44.2088 73.0792 42.6891 74.0439 41.6917L74.0449 41.6908C75.011 40.6909 76.3642 40.1147 77.9268 40.1146Z" stroke="#500E9C" stroke-width="5"/>
<circle cx="67.5" cy="67.5" r="64.5" stroke="#500E9C" stroke-width="6"/>
</svg>
