<svg width="25" height="23" viewBox="0 0 25 23" fill="none" xmlns="http://www.w3.org/2000/svg">
<path opacity="0.2" d="M21.4273 10.7618V17.8612C21.4273 18.8083 21.0511 19.7165 20.3814 20.3862C19.7117 21.0559 18.8035 21.4321 17.8564 21.4321H7.14367C6.1966 21.4321 5.28833 21.0559 4.61865 20.3862C3.94897 19.7165 3.57275 18.8083 3.57275 17.8612V10.7618L9.82185 2.68481H15.1782L21.4273 10.7618Z" fill="#500E9C"/>
<path d="M24.9656 11.2773L23.1333 1.45725C23.0885 1.21788 22.9953 0.990202 22.8592 0.788214C22.7232 0.586226 22.5473 0.414198 22.3423 0.282709C22.1374 0.151221 21.9077 0.0630504 21.6674 0.023621C21.4271 -0.0158085 21.1812 -0.00566377 20.945 0.0534313L20.9104 0.0634745L15.0496 1.79202H9.94994L4.08918 0.069054L4.05458 0.0590108C3.81835 -8.431e-05 3.57252 -0.010229 3.33221 0.0292004C3.09191 0.0686299 2.86221 0.1568 2.65724 0.288289C2.45227 0.419778 2.27637 0.591806 2.14035 0.793793C2.00432 0.995781 1.91106 1.22346 1.86629 1.46283L0.0339606 11.2773C-0.0443952 11.6703 0.0137673 12.0783 0.198827 12.4339C0.383888 12.7894 0.684758 13.0711 1.05167 13.2323C1.28669 13.34 1.54195 13.3963 1.80045 13.3975C2.10984 13.3972 2.4135 13.314 2.67978 13.1565V17.8611C2.67978 19.045 3.15006 20.1803 3.98715 21.0174C4.82425 21.8545 5.95959 22.3248 7.14342 22.3248H17.8562C19.04 22.3248 20.1753 21.8545 21.0124 21.0174C21.8495 20.1803 22.3198 19.045 22.3198 17.8611V13.1576C22.5858 13.3149 22.889 13.3981 23.198 13.3986C23.4568 13.3979 23.7125 13.342 23.9479 13.2346C24.3153 13.0732 24.6165 12.7912 24.8015 12.4352C24.9866 12.0792 25.0445 11.6706 24.9656 11.2773ZM1.78706 11.612L3.6205 1.79202L8.31513 3.1724L1.78706 11.612ZM17.8562 20.5393H13.3925V19.1232L14.9169 17.6C15.0844 17.4325 15.1785 17.2053 15.1785 16.9684C15.1785 16.7315 15.0844 16.5043 14.9169 16.3368C14.7493 16.1693 14.5221 16.0752 14.2853 16.0752C14.0484 16.0752 13.8212 16.1693 13.6536 16.3368L12.4998 17.4918L11.3459 16.3368C11.1784 16.1693 10.9512 16.0752 10.7143 16.0752C10.4774 16.0752 10.2502 16.1693 10.0827 16.3368C9.91522 16.5043 9.82111 16.7315 9.82111 16.9684C9.82111 17.2053 9.91522 17.4325 10.0827 17.6L11.6071 19.1232V20.5393H7.14342C6.43313 20.5393 5.75192 20.2571 5.24966 19.7549C4.74741 19.2526 4.46524 18.5714 4.46524 17.8611V11.0663L10.2602 3.57748H14.7394L20.5343 11.0663V17.8611C20.5343 18.5714 20.2522 19.2526 19.7499 19.7549C19.2477 20.2571 18.5665 20.5393 17.8562 20.5393ZM23.2125 11.612L16.6845 3.1724L21.3791 1.79202L23.2125 11.612ZM9.82161 12.9511C9.82161 13.216 9.74307 13.4749 9.59593 13.6951C9.44879 13.9153 9.23965 14.0869 8.99497 14.1883C8.75028 14.2896 8.48103 14.3162 8.22127 14.2645C7.96151 14.2128 7.72291 14.0853 7.53564 13.898C7.34836 13.7107 7.22082 13.4721 7.16915 13.2124C7.11749 12.9526 7.144 12.6834 7.24536 12.4387C7.34671 12.194 7.51834 11.9848 7.73856 11.8377C7.95877 11.6906 8.21767 11.612 8.48252 11.612C8.83767 11.612 9.17827 11.7531 9.4294 12.0042C9.68053 12.2554 9.82161 12.596 9.82161 12.9511ZM17.8562 12.9511C17.8562 13.216 17.7776 13.4749 17.6305 13.6951C17.4833 13.9153 17.2742 14.0869 17.0295 14.1883C16.7848 14.2896 16.5156 14.3162 16.2558 14.2645C15.9961 14.2128 15.7575 14.0853 15.5702 13.898C15.3829 13.7107 15.2554 13.4721 15.2037 13.2124C15.152 12.9526 15.1786 12.6834 15.2799 12.4387C15.3813 12.194 15.5529 11.9848 15.7731 11.8377C15.9933 11.6906 16.2522 11.612 16.5171 11.612C16.8722 11.612 17.2128 11.7531 17.464 12.0042C17.7151 12.2554 17.8562 12.596 17.8562 12.9511Z" fill="#500E9C"/>
</svg>
