<svg width="40" height="40" viewBox="0 0 40 40" fill="none" xmlns="http://www.w3.org/2000/svg">
<path fill-rule="evenodd" clip-rule="evenodd" d="M11.6665 15.8333C11.6668 13.0123 12.6214 10.2744 14.375 8.06466C16.1286 5.85492 18.5781 4.30331 21.3252 3.6621C24.0724 3.02089 26.9557 3.32778 29.5063 4.53287C32.057 5.73796 34.125 7.7704 35.3742 10.2997C36.6233 12.8291 36.9802 15.7066 36.3868 18.4645C35.7933 21.2224 34.2845 23.6984 32.1055 25.4901C29.9265 27.2818 27.2056 28.2837 24.385 28.333C21.5644 28.3823 18.8101 27.4761 16.5698 25.7617L13.5898 28.74L15.9665 31.1167C16.1257 31.2704 16.2526 31.4543 16.34 31.6577C16.4273 31.861 16.4733 32.0797 16.4752 32.301C16.4772 32.5223 16.435 32.7418 16.3512 32.9466C16.2674 33.1514 16.1436 33.3375 15.9872 33.494C15.8307 33.6505 15.6446 33.7742 15.4398 33.858C15.2349 33.9418 15.0155 33.984 14.7942 33.9821C14.5729 33.9802 14.3542 33.9342 14.1508 33.8468C13.9475 33.7595 13.7636 33.6325 13.6098 33.4733L11.2332 31.0983L7.69983 34.6317C7.38709 34.9442 6.96302 35.1197 6.52091 35.1195C6.07879 35.1194 5.65484 34.9436 5.34233 34.6308C5.02982 34.3181 4.85434 33.894 4.85449 33.4519C4.85465 33.0098 5.03043 32.5859 5.34316 32.2733L8.8765 28.74L6.53816 26.4017C6.37898 26.2479 6.25201 26.064 6.16466 25.8607C6.07731 25.6573 6.03134 25.4386 6.02941 25.2173C6.02749 24.996 6.06966 24.7766 6.15346 24.5718C6.23726 24.3669 6.36102 24.1808 6.5175 24.0244C6.67399 23.8679 6.86008 23.7441 7.06491 23.6603C7.26973 23.5765 7.4892 23.5343 7.7105 23.5363C7.9318 23.5382 8.1505 23.5842 8.35384 23.6715C8.55718 23.7589 8.74108 23.8858 8.89483 24.045L11.2332 26.3833L14.2165 23.4C12.5588 21.2262 11.6627 18.5671 11.6665 15.8333ZM24.1665 6.66668C21.7353 6.66668 19.4038 7.63245 17.6847 9.35153C15.9656 11.0706 14.9998 13.4022 14.9998 15.8333C14.9998 18.2645 15.9656 20.5961 17.6847 22.3152C19.4038 24.0342 21.7353 25 24.1665 25C26.5976 25 28.9292 24.0342 30.6483 22.3152C32.3674 20.5961 33.3332 18.2645 33.3332 15.8333C33.3332 13.4022 32.3674 11.0706 30.6483 9.35153C28.9292 7.63245 26.5976 6.66668 24.1665 6.66668Z" fill="#500E9C"/>
</svg>
