<svg width="135" height="135" viewBox="0 0 135 135" fill="none" xmlns="http://www.w3.org/2000/svg">
<circle cx="67.5" cy="67.5" r="64.5" stroke="#500E9C" stroke-width="6"/>
<g clip-path="url(#clip0_201_115)">
<path fill-rule="evenodd" clip-rule="evenodd" d="M64.7811 31.5131C66.1712 31.5484 67.8953 31.6511 68.6126 31.7415C69.3298 31.8319 70.7092 32.0818 71.6778 32.2964C72.6464 32.5125 74.2679 32.96 75.2794 33.2926C76.2909 33.6252 77.7392 34.1908 78.4978 34.551C79.2565 34.9097 80.3768 35.5274 80.9883 35.9243C81.5998 36.3198 82.6251 37.1428 83.2688 37.7544C83.9125 38.366 84.7187 39.2795 85.0604 39.7853C85.4037 40.2911 85.9049 41.1877 86.1762 41.7778C86.4474 42.3679 86.8398 43.5052 87.0497 44.3068C87.2597 45.1084 87.6199 46.5906 87.8497 47.6022C88.0812 48.6138 88.4367 49.8216 88.6421 50.2845C88.8475 50.7474 89.1831 51.3512 89.3885 51.6256C89.5938 51.9 89.9494 52.2448 90.1762 52.392C90.5441 52.6295 91.2046 52.6709 95.9618 52.7522C100.16 52.8242 101.484 52.8947 102.023 53.0756C102.403 53.2028 102.937 53.4204 103.211 53.5584C103.485 53.6963 103.96 54.0335 104.267 54.3079C104.573 54.5822 105.015 55.0819 105.248 55.4191C105.481 55.7563 105.858 56.584 106.086 57.2584C106.425 58.2623 106.508 58.8034 106.54 60.2472C106.56 61.2159 106.554 61.4412 106.523 60.7453C106.468 59.4808 106.468 59.4808 105.887 59.0593C105.567 58.8279 104.558 58.1888 103.643 57.6416C102.222 56.7909 101.799 56.4368 100.737 55.2168C100.054 54.432 99.2523 53.6212 98.958 53.4158C98.6637 53.212 98.1794 52.9989 97.8852 52.9453C97.4208 52.8595 97.2706 52.9146 96.7679 53.3668C96.2744 53.8082 96.1411 54.0718 95.8836 55.1126C95.7181 55.787 95.5832 56.6315 95.5863 57.6416L93.0958 57.64C91.39 57.6385 90.2912 57.5619 89.6092 57.4009C89.0605 57.2707 88.2084 56.9442 87.7133 56.6744C87.2045 56.3985 86.5302 55.8513 86.1639 55.4191C85.8068 54.9976 85.2765 54.2726 84.9853 53.8097C84.6941 53.3469 84.2788 52.5529 84.0612 52.0471C83.8451 51.5413 83.4451 50.1971 83.1723 49.0583C82.901 47.9195 82.5087 46.3683 82.3002 45.6096C82.0933 44.8509 81.7408 43.8501 81.5186 43.3872C81.2672 42.863 80.6757 42.1089 79.9569 41.3946C79.2657 40.708 78.3369 39.9845 77.6518 39.5983C77.022 39.2427 75.7805 38.6771 74.8962 38.343C74.0119 38.0073 72.4594 37.5306 71.4479 37.2823C70.4364 37.0356 68.7122 36.7106 67.6164 36.5635C66.1053 36.3596 65.0876 36.3167 63.4018 36.3857C62.1788 36.4363 60.5588 36.5819 59.8002 36.7091C59.0415 36.8363 57.6959 37.1459 56.8116 37.3957C55.9273 37.6456 54.5817 38.1008 53.823 38.4058C53.0644 38.7108 51.8582 39.2764 51.141 39.6611C50.4237 40.0458 49.3555 40.6712 48.7655 41.0513C48.1754 41.4314 46.9677 42.2989 46.0834 42.9795C45.1991 43.66 43.5408 45.1514 42.3991 46.2932C41.2573 47.4351 39.7155 49.1273 38.9722 50.0546C38.2304 50.9819 36.9154 52.8104 36.0526 54.1163C35.1882 55.4222 34.0449 57.286 33.5115 58.2547C32.9782 59.2233 32.169 60.8113 31.7107 61.7799C31.254 62.7486 30.4693 64.5772 29.9682 65.8417C29.467 67.1062 28.9045 68.3032 28.7191 68.501C28.5336 68.6972 28.1919 68.9562 27.9605 69.0757C27.729 69.1938 27.2984 69.2903 27.0026 69.2903C26.7068 69.2903 26.2424 69.1984 25.9681 69.0865C25.6938 68.973 25.28 68.6634 25.0485 68.3967C24.8171 68.13 24.5811 67.6518 24.5259 67.3361C24.4508 66.91 24.5336 66.444 24.8447 65.5351C25.0746 64.8607 25.6095 63.4813 26.0325 62.4697C26.4554 61.4581 27.4486 59.3552 28.2379 57.7948C29.0287 56.2345 30.2348 54.0626 30.9184 52.9667C31.6019 51.8708 32.6533 50.2845 33.2556 49.4415C33.8579 48.5985 35.0181 47.1148 35.8349 46.1461C36.6503 45.1774 38.1001 43.611 39.0565 42.6668C40.0128 41.7226 41.3814 40.4612 42.0987 39.8634C42.8159 39.2672 44.3317 38.1529 45.4704 37.3911C46.6091 36.6279 48.5739 35.4952 49.8383 34.8744C51.1027 34.2536 52.9648 33.4735 53.9763 33.1409C54.9878 32.8098 56.6783 32.3592 57.7312 32.1415C58.7856 31.9239 60.2324 31.6787 60.9496 31.5974C61.6669 31.5162 63.391 31.4779 64.7811 31.5131ZM76.1315 51.0846C76.5928 51.1121 77.0082 51.2608 77.3576 51.5229C77.6473 51.739 78.0059 52.1713 78.153 52.4809C78.3385 52.8717 78.4212 53.4189 78.4212 54.2696C78.4212 54.944 78.3308 55.7195 78.2204 55.9939C78.1101 56.2682 77.753 56.6989 77.4281 56.9518C76.93 57.3381 76.6986 57.4117 75.9691 57.4117C75.2395 57.4117 75.0081 57.3381 74.51 56.9518C74.1851 56.6989 73.8219 56.2514 73.7023 55.9556C73.5537 55.5877 73.5031 54.9838 73.5399 54.0274C73.5859 52.815 73.6441 52.5682 73.9889 52.1115C74.2066 51.8233 74.6204 51.4647 74.9085 51.3145C75.2441 51.1397 75.684 51.0554 76.1315 51.0846ZM64.7045 51.4141C65.1259 51.4539 65.6424 51.6195 65.8539 51.7804C66.0639 51.9429 66.3781 52.2755 66.5497 52.5207C66.8302 52.9208 66.8746 53.2963 66.9712 56.1088C67.031 57.8362 67.0785 61.0442 67.0785 63.236C67.0769 65.4278 67.0064 68.5653 66.9206 70.21C66.8332 71.8546 66.6248 74.2686 66.4578 75.5745C66.2892 76.8804 65.9765 78.7442 65.762 79.7129C65.5474 80.6831 65.1443 82.1652 64.8654 83.0083C64.588 83.8513 64.0209 85.2307 63.6056 86.0737C63.1903 86.9167 62.5496 88.054 62.1818 88.6027C61.8155 89.1514 60.922 90.1876 60.1971 90.9079C59.4737 91.6268 58.3626 92.5388 57.7312 92.9342C57.0982 93.3281 56.0989 93.8554 55.5089 94.1052C54.9188 94.355 53.8843 94.6999 53.21 94.8716C52.5357 95.0432 51.3985 95.2548 50.6812 95.3421C49.964 95.4295 48.7578 95.5 47.9992 95.5C47.2405 95.5 45.9991 95.4249 45.2405 95.3329C44.4819 95.2425 43.3431 94.9942 42.7117 94.7827C42.0787 94.5712 41.2174 94.1696 40.796 93.8906C40.3745 93.6101 39.7155 93.0476 39.3308 92.6399C38.9461 92.2322 38.4496 91.5885 38.2273 91.2084C38.0051 90.8282 37.6419 90.0358 37.4197 89.4457C37.199 88.8556 36.9093 87.89 36.776 87.2999C36.6012 86.532 36.5292 85.3779 36.5231 83.2382C36.5154 81.1092 36.592 79.7205 36.7867 78.4101C36.9369 77.3985 37.2633 75.5714 37.5131 74.3483C37.7614 73.1252 38.2089 71.1955 38.5063 70.0567C38.8051 68.9179 39.504 66.5038 40.0603 64.6921C40.6151 62.8804 41.409 60.2932 41.8228 58.9444C42.2366 57.5956 42.6749 56.3372 42.7975 56.1472C42.9186 55.9571 43.242 55.6643 43.5163 55.4957C43.8397 55.298 44.2842 55.1907 44.7807 55.1907C45.2773 55.1907 45.7217 55.298 46.0451 55.4957C46.3194 55.6643 46.6811 56.0261 46.8497 56.3004C47.0413 56.6146 47.1547 57.0683 47.1562 57.5266C47.1562 57.968 46.8467 59.2632 46.3685 60.822C45.9363 62.2336 45.2114 64.5971 44.7577 66.0716C44.3041 67.5461 43.6589 69.7885 43.3247 71.053C42.9906 72.3175 42.5477 74.1797 42.3408 75.1913C42.1339 76.2029 41.8519 77.7556 41.7171 78.64C41.5807 79.5244 41.4305 81.2487 41.3814 82.4718C41.317 84.1195 41.3538 85.0115 41.5255 85.9204C41.6527 86.5948 41.9194 87.5206 42.1186 87.9774C42.3546 88.5169 42.75 89.0411 43.2481 89.4764C43.8167 89.973 44.232 90.1922 44.8573 90.327C45.3248 90.4282 46.8267 90.5064 48.2291 90.5018C50.3563 90.4956 50.9525 90.4405 51.9839 90.1538C52.6583 89.9668 53.7265 89.5438 54.3594 89.2143C55.02 88.8709 55.9396 88.2057 56.5219 87.6509C57.0798 87.1206 57.8737 86.1687 58.289 85.5373C58.7028 84.9042 59.3051 83.767 59.6254 83.0083C59.9458 82.2495 60.4086 80.8701 60.6523 79.9428C60.8944 79.0155 61.2316 77.3939 61.3987 76.3409C61.5657 75.2864 61.7879 73.631 61.8906 72.6623C62.0148 71.5005 62.0837 67.8725 62.0945 62.0099C62.1098 53.4649 62.122 53.1001 62.4117 52.6096C62.5772 52.3276 62.988 51.9276 63.3251 51.7206C63.8263 51.411 64.0776 51.3558 64.7045 51.4141ZM99.073 57.9497C99.263 57.9497 99.7013 58.2071 100.049 58.5229C100.397 58.8386 100.776 59.2877 100.892 59.5192C101.013 59.7598 101.087 60.2932 101.027 61.5838L100.183 60.8005C99.7182 60.3698 98.8645 59.7077 97.2292 58.6378L97.9787 58.2945C98.3909 58.106 98.8829 57.9512 99.073 57.9497ZM102.092 63.0904C102.426 63.2268 103.291 63.328 104.334 63.351C105.878 63.3862 106.054 63.3617 106.264 63.0828C106.48 62.7992 106.489 62.8268 106.391 63.4659C106.333 63.8461 106.081 65.2945 105.833 66.6847C105.585 68.0749 105.206 69.8344 104.992 70.5931C104.777 71.3518 104.305 72.5934 103.943 73.3521C103.58 74.1108 102.874 75.2833 102.373 75.9577C101.87 76.6321 100.949 77.6682 100.324 78.2614C99.6998 78.8546 98.6362 79.7129 97.9618 80.1681C97.2875 80.6233 95.9771 81.3728 95.0499 81.8342C94.1227 82.294 92.4675 82.9653 91.3717 83.324C90.2758 83.6842 88.5517 84.1517 87.5402 84.3632C86.5286 84.5762 84.5639 84.892 83.1723 85.0667C81.7822 85.2399 79.54 85.4514 78.1913 85.5357C76.8426 85.62 74.9116 85.689 73.9001 85.6875C72.2832 85.6859 71.9874 85.6445 71.4479 85.3426C71.0418 85.1142 70.7184 84.7678 70.4885 84.3111C70.2985 83.931 70.1421 83.4481 70.1421 83.2382C70.1421 83.0266 70.2985 82.5454 70.4885 82.1652C70.7184 81.7085 71.0418 81.3621 71.4479 81.1337C71.9782 80.8379 72.2893 80.7904 73.7468 80.7873C74.674 80.7858 76.5714 80.7138 77.9614 80.6295C79.3515 80.5436 81.3515 80.3674 82.406 80.2371C83.4589 80.1068 85.1662 79.8324 86.1991 79.627C87.2321 79.4217 88.7494 79.04 89.5709 78.7794C90.3923 78.5189 91.8238 77.938 92.751 77.4904C93.6782 77.0413 94.7847 76.4098 95.2108 76.0864C95.6369 75.763 96.3127 75.222 96.7128 74.8848C97.1128 74.5476 97.7335 73.8916 98.0936 73.4287C98.4523 72.9658 98.9565 72.2056 99.214 71.7427C99.4714 71.2798 99.8592 70.3816 100.075 69.7501C100.293 69.1171 100.684 67.4618 100.944 66.0716C101.206 64.6814 101.449 63.3908 101.484 63.2054C101.545 62.8835 101.57 62.8789 102.092 63.0904Z" fill="#500E9C"/>
<path d="M95.8839 55.1126C96.1368 54.0872 96.2793 53.8021 96.7514 53.3714C97.2418 52.9238 97.3874 52.8671 97.8686 52.9499C98.1736 53.002 98.664 53.212 98.9583 53.4158C99.2526 53.6212 100.054 54.432 100.738 55.2168C101.8 56.4368 102.223 56.7909 103.643 57.6416C104.558 58.1903 105.567 58.8279 106.468 59.4808L106.471 61.1285C106.473 62.321 106.413 62.8605 106.254 63.0827C106.053 63.3617 105.881 63.3862 104.335 63.351C103.245 63.3264 102.445 63.2299 102.1 63.0827C101.743 62.9295 101.564 62.7507 101.564 62.5463C101.564 62.3777 101.421 62.0497 101.247 61.8182C100.988 61.4734 100.948 61.2711 101.032 60.707C101.104 60.2273 101.066 59.8778 100.908 59.5575C100.784 59.3046 100.397 58.8386 100.05 58.5229C99.7016 58.2071 99.2801 57.9481 99.1116 57.9481C98.943 57.9481 98.4602 58.086 97.2724 58.5612L96.428 58.0631C95.6264 57.591 95.582 57.5327 95.582 56.9518C95.582 56.6146 95.7184 55.787 95.8839 55.1126Z" fill="#500E9C"/>
<path d="M78.8657 89.8256L83.0308 93.4676V74.6794C83.0305 74.2621 83.1124 73.8489 83.2718 73.4633C83.4312 73.0777 83.665 72.7273 83.9599 72.4321C84.5553 71.8358 85.3633 71.5006 86.2059 71.5C87.0486 71.4994 87.8569 71.8336 88.4532 72.4291C88.7484 72.7239 88.9827 73.074 89.1426 73.4594C89.3025 73.8448 89.385 74.2579 89.3853 74.6751L89.3938 84.7627L94.9754 85.6669C98.5793 86.2174 100.381 86.4906 101.65 87.2613C103.746 88.536 105.264 90.5603 105.264 93.241C105.264 95.1848 104.79 96.4892 103.638 99.9957C102.907 102.219 102.541 103.331 101.944 104.21C100.97 105.654 99.5211 106.713 97.8488 107.204C96.8366 107.5 95.6805 107.5 93.3703 107.5H91.4096C88.335 107.5 86.7999 107.5 85.4299 106.928C85.1853 106.824 84.9457 106.708 84.712 106.581C83.4119 105.865 82.4421 104.654 80.5047 102.236L74.2306 94.4056C73.7606 93.8194 73.5031 93.0912 73.5 92.3398C73.497 91.5884 73.7485 90.8582 74.2137 90.2681C74.4829 89.9234 74.8195 89.6372 75.2029 89.427C75.5864 89.2167 76.0087 89.0868 76.4441 89.0452C76.8794 89.0036 77.3187 89.0511 77.735 89.1849C78.1514 89.3187 78.5361 89.5381 78.8657 89.8256Z" fill="#EEE7F6" stroke="#500E9C" stroke-width="4" stroke-linecap="round" stroke-linejoin="round"/>
</g>
<defs>
<clipPath id="clip0_201_115">
<rect width="83" height="78" fill="white" transform="translate(24.5 31.5)"/>
</clipPath>
</defs>
</svg>
