<svg width="40" height="40" viewBox="0 0 40 40" fill="none" xmlns="http://www.w3.org/2000/svg">
<path d="M34.5314 3.75H27.5002C27.0444 3.75 26.6072 3.93108 26.2849 4.25341C25.9625 4.57574 25.7814 5.01291 25.7814 5.46875C25.7814 5.92459 25.9625 6.36176 26.2849 6.68409C26.6072 7.00642 27.0444 7.1875 27.5002 7.1875H30.3822L25.6643 11.9055C20.3369 7.77578 12.6174 8.15547 7.73145 13.0438C2.43145 18.3445 2.43145 26.968 7.73457 32.2656C10.2858 34.8092 13.7414 36.2375 17.3439 36.2375C20.9465 36.2375 24.4021 34.8092 26.9533 32.2656C31.8416 27.3766 32.2213 19.6602 28.0916 14.3328L32.8127 9.61797V12.5C32.8127 12.9558 32.9938 13.393 33.3161 13.7153C33.6384 14.0377 34.0756 14.2188 34.5314 14.2188C34.9873 14.2188 35.4245 14.0377 35.7468 13.7153C36.0691 13.393 36.2502 12.9558 36.2502 12.5V5.46875C36.2502 5.24304 36.2057 5.01954 36.1194 4.81101C36.033 4.60248 35.9064 4.41301 35.7468 4.25341C35.5872 4.09381 35.3977 3.96721 35.1892 3.88083C34.9807 3.79446 34.7572 3.75 34.5314 3.75ZM24.5252 29.8375C22.6192 31.7395 20.0366 32.8077 17.3439 32.8077C14.6513 32.8077 12.0687 31.7395 10.1627 29.8375C6.20254 25.8781 6.20254 19.4344 10.1627 15.475C14.1229 11.5156 20.5658 11.5148 24.5252 15.475C28.4846 19.4352 28.4854 25.8781 24.5252 29.8375Z" fill="#FE9103"/>
</svg>
