<svg width="23" height="23" viewBox="0 0 23 23" fill="none" xmlns="http://www.w3.org/2000/svg">
<path d="M7.19703 18.5258L14.2005 11.3412L7.19703 4.15656C7.07164 4.0282 7.00144 3.85588 7.00144 3.67644C7.00144 3.497 7.07164 3.32467 7.19703 3.19631C7.25793 3.13416 7.33062 3.08478 7.41084 3.05107C7.49106 3.01736 7.5772 3 7.66422 3C7.75124 3 7.83738 3.01736 7.9176 3.05107C7.99782 3.08478 8.07051 3.13416 8.13141 3.19631L15.5834 10.8395C15.7142 10.9737 15.7875 11.1538 15.7875 11.3412C15.7875 11.5286 15.7142 11.7087 15.5834 11.8429L8.13284 19.4861C8.0719 19.5487 7.99903 19.5984 7.91855 19.6324C7.83806 19.6663 7.75158 19.6838 7.66422 19.6838C7.57686 19.6838 7.49038 19.6663 7.40989 19.6324C7.3294 19.5984 7.25654 19.5487 7.19559 19.4861C7.0702 19.3577 7 19.1854 7 19.0059C7 18.8265 7.0702 18.6542 7.19559 18.5258L7.19703 18.5258Z" fill="#2C2C2C"/>
</svg>
